<svg version="1.1" id="Layer_1" xmlns="http://www.w3.org/2000/svg" xmlns:xlink="http://www.w3.org/1999/xlink" x="0px" y="0px"
     width="100%" height="100%" viewBox="0 0 3621 1181" enable-background="new 0 0 3621 1181" xml:space="preserve">
<path fill="#010100" opacity="00000000" stroke="none"
	d="
M2346.000000,1184.000000
	C1564.000000,1184.000000 783.000000,1184.000000 2.000000,1184.000000
	C2.000000,790.000000 2.000000,396.000000 2.000000,2.000000
	C1209.333374,2.000000 2416.666748,2.000000 3624.000000,2.000000
	C3624.000000,396.000000 3624.000000,790.000000 3624.000000,1184.000000
	C3198.333252,1184.000000 2772.666748,1184.000000 2346.000000,1184.000000
M293.309204,619.772278
	C294.107300,620.830688 294.893036,621.898682 295.705322,622.946045
	C342.511230,683.297729 389.399200,743.585999 436.080231,804.034119
	C450.676666,822.935242 468.815765,833.160278 493.396515,832.284302
	C520.293579,831.325806 545.995300,812.748718 545.879883,779.126953
	C545.391296,636.806458 545.672791,494.483307 545.672668,352.161102
	C545.672668,350.161255 545.774475,348.155273 545.654907,346.162567
	C544.727722,330.708893 538.270081,318.297760 523.777039,312.028046
	C504.110840,303.520355 484.227509,304.029053 465.386261,314.804962
	C453.373840,321.675232 446.184387,332.097076 446.345123,346.498596
	C447.456512,446.069702 443.917114,545.671875 448.340332,645.219910
	C448.607544,651.232910 449.081268,657.236755 449.605072,665.571106
	C445.617157,660.749634 443.061035,657.850220 440.712921,654.791016
	C415.642670,622.128235 390.659210,589.398682 365.547729,556.767578
	C315.322327,491.502228 265.096527,426.236969 214.714676,361.092499
	C204.356873,347.699707 193.974304,334.219635 182.432587,321.874207
	C165.666809,303.940887 134.901947,301.442749 114.386765,314.376038
	C98.266838,324.538483 92.311874,340.172852 92.314804,358.642426
	C92.337433,501.297913 92.327255,643.953369 92.327347,786.608887
	C92.327347,788.275452 92.198540,789.953796 92.349129,791.606689
	C93.964539,809.336243 102.281105,822.604431 119.317314,828.759033
	C133.405136,833.848572 148.169830,834.029175 162.501892,829.597778
	C180.529892,824.023621 191.591995,808.691284 191.634338,789.908386
	C191.747040,739.912537 191.946030,689.914429 191.595825,639.920776
	C191.246033,589.984619 193.654343,540.005859 190.110794,489.476501
	C225.335846,531.788269 258.319733,575.664185 293.309204,619.772278
M906.022095,416.701660
	C863.800110,402.859772 820.694092,400.004089 777.141113,408.006073
	C703.485657,421.538818 652.654419,463.750092 625.194458,533.194336
	C606.701721,579.961304 603.200012,628.665955 612.420776,677.961853
	C622.624695,732.514404 650.900391,775.750427 697.568970,806.089539
	C736.018005,831.085205 779.201965,840.599426 824.468384,841.085938
	C840.674072,841.260132 857.034851,840.057617 873.097229,837.837158
	C908.601196,832.929016 941.282654,820.645020 969.197937,797.383728
	C978.511963,789.622620 986.508179,780.936157 990.532715,769.108093
	C996.172974,752.531250 990.134155,733.294739 976.631042,722.659668
	C960.315430,709.809448 935.823364,711.218628 916.765808,726.331604
	C911.572571,730.449829 906.344482,734.637207 900.669678,738.015564
	C876.009949,752.695679 849.107971,759.023804 820.551758,758.040161
	C771.742920,756.359009 735.954834,733.582764 713.337280,690.425293
	C709.804382,683.683899 705.957642,676.628296 706.012573,668.093384
	C710.294983,668.093384 713.952209,668.093384 717.609375,668.093384
	C806.603760,668.093384 895.598328,668.146729 984.592407,667.984436
	C991.164368,667.972473 997.898254,667.055115 1004.270081,665.432678
	C1018.055542,661.922363 1026.886353,653.009277 1029.592163,638.847961
	C1030.767212,632.698181 1031.636108,626.361450 1031.556152,620.123535
	C1031.275513,598.213867 1029.030151,576.447205 1023.915344,555.125854
	C1008.226074,489.724182 971.630371,441.855652 906.022095,416.701660
M3078.760986,717.183289
	C3072.754639,720.675537 3066.633301,723.987061 3060.781006,727.720886
	C3056.598877,730.389160 3052.969482,733.929993 3048.764893,736.554993
	C3024.404053,751.763550 2997.742676,758.611938 2969.093018,758.217224
	C2924.161377,757.598267 2888.992676,739.047668 2864.456299,701.180786
	C2858.041748,691.280640 2853.366943,680.527771 2850.684814,668.203247
	C2855.416504,668.203247 2859.063477,668.203247 2862.710449,668.203247
	C2951.685303,668.203247 3040.660400,668.215759 3129.635254,668.167664
	C3134.283691,668.165161 3139.023682,668.139221 3143.563721,667.286011
	C3164.997803,663.258179 3175.693359,650.388733 3176.338135,628.505066
	C3177.326172,594.972290 3173.317383,562.117432 3161.989258,530.457886
	C3140.851562,471.384155 3100.701416,431.833771 3040.273926,413.613708
	C3007.995605,403.881134 2975.011230,402.388733 2941.630371,405.496368
	C2910.403564,408.403503 2881.013428,417.068665 2853.946045,433.039459
	C2808.751709,459.705719 2779.810059,499.362457 2765.031006,548.948303
	C2749.927734,599.622192 2748.098633,651.001892 2763.821777,702.134827
	C2777.683838,747.214050 2805.162842,782.085632 2844.750244,807.394653
	C2881.990479,831.203186 2923.630371,840.185913 2967.068604,841.255188
	C2984.563477,841.685852 3002.255615,840.009277 3019.641602,837.677673
	C3053.120361,833.187988 3084.065674,821.744568 3110.882324,800.525024
	C3119.527100,793.684570 3127.525635,786.292725 3132.920166,776.451294
	C3142.800049,758.426025 3138.477539,736.253723 3122.525635,723.354858
	C3109.708740,712.991150 3095.383057,712.112122 3078.760986,717.183289
M1717.438965,407.340851
	C1692.007202,402.304810 1666.609863,402.908081 1641.248657,407.853699
	C1574.641357,420.842468 1527.993164,458.906982 1500.170044,520.444336
	C1485.982666,551.822998 1481.052979,585.145386 1480.415771,619.240479
	C1480.267578,627.164978 1481.269531,635.107239 1481.648804,643.045837
	C1483.283203,677.260681 1490.537354,710.123535 1505.714600,740.970703
	C1525.918945,782.034912 1556.589722,812.121826 1599.844604,828.179504
	C1628.180420,838.698792 1657.525146,842.539856 1687.855835,840.254639
	C1720.883301,837.766296 1751.713623,828.691895 1780.491211,812.513367
	C1787.383911,808.638367 1793.883423,804.064209 1799.915771,800.224060
	C1804.388184,807.160706 1807.808105,814.447693 1813.006226,820.099182
	C1822.716309,830.656433 1835.832153,832.020630 1849.614990,832.296021
	C1874.825439,832.799866 1895.974487,815.496582 1895.853394,786.305115
	C1895.399902,676.985657 1895.580688,567.663208 1895.743164,458.342133
	C1895.778809,434.340698 1883.212036,416.466003 1857.749878,412.727631
	C1839.971802,410.117432 1822.956543,412.603119 1810.283569,427.110443
	C1806.294556,431.677032 1803.873291,437.613220 1800.414917,443.462921
	C1776.047363,425.624420 1748.843506,413.739685 1717.438965,407.340851
M2605.984619,674.543274
	C2607.718018,675.531128 2609.472656,676.483337 2611.181152,677.512451
	C2623.845947,685.141541 2628.462158,694.754517 2626.322510,709.176575
	C2624.080322,724.287598 2614.382324,734.168152 2602.291504,741.843628
	C2581.697021,754.917480 2558.315430,758.254578 2534.602295,759.437256
	C2512.535645,760.537781 2490.727783,757.789856 2469.634033,751.346680
	C2448.703125,744.953125 2430.379395,735.117920 2423.002930,711.954224
	C2419.937256,702.326599 2413.431152,694.526001 2404.400635,689.289917
	C2385.864746,678.542725 2359.390625,682.437866 2343.409668,697.767090
	C2333.564941,707.210266 2330.154053,718.749634 2332.876465,731.441040
	C2338.954102,759.774292 2353.937012,782.889160 2376.605713,800.946045
	C2396.811768,817.041443 2420.342773,826.245728 2445.093506,832.008911
	C2477.193848,839.483276 2509.763428,842.079895 2542.857910,840.479126
	C2570.652832,839.134705 2597.685059,835.024353 2623.867676,825.745361
	C2646.333252,817.783813 2667.105957,806.559631 2684.309082,789.911926
	C2714.907471,760.301514 2726.213867,724.153320 2720.498779,681.949341
	C2714.927734,640.809692 2691.866455,614.685730 2654.140869,599.724060
	C2620.041748,586.200378 2584.035889,582.350037 2548.102539,578.309265
	C2522.728027,575.455872 2497.174561,574.188477 2471.809082,571.270996
	C2462.771484,570.231445 2453.882324,566.886292 2445.240723,563.730164
	C2437.848633,561.030396 2433.732178,554.546753 2432.121582,547.170227
	C2429.101562,533.338440 2432.176758,520.960754 2442.538086,510.732147
	C2452.317871,501.077606 2464.325439,495.656372 2477.318115,492.141510
	C2507.438232,483.992981 2537.913086,484.780975 2568.116211,490.619751
	C2592.082275,495.252808 2612.646240,505.690643 2623.177002,530.187805
	C2627.417480,540.052063 2636.033936,545.843811 2646.825928,548.355774
	C2662.992188,552.118652 2677.831543,549.423218 2691.489014,540.208008
	C2708.454102,528.761047 2714.214600,509.899841 2706.201416,491.265656
	C2692.370605,459.103333 2668.510986,437.092163 2636.667725,423.240570
	C2608.543945,411.006989 2578.757568,405.918762 2548.513184,404.471771
	C2522.319336,403.218536 2496.009521,403.416077 2469.933594,408.022278
	C2440.432373,413.233551 2412.679199,422.660675 2387.865723,439.811096
	C2365.254883,455.438873 2349.089600,475.887207 2340.906738,502.383911
	C2335.191895,520.888367 2335.128662,539.684509 2337.741943,558.607239
	C2343.029785,596.896423 2364.178223,622.888489 2399.455566,637.929565
	C2422.930664,647.938660 2447.690186,652.960205 2472.790771,655.941833
	C2501.432617,659.344116 2530.238525,661.343323 2558.940430,664.273621
	C2574.463135,665.858459 2589.929688,668.057678 2605.984619,674.543274
M1177.171997,652.177490
	C1176.595337,652.991760 1176.102783,653.884155 1175.429810,654.609070
	C1144.441772,687.982971 1113.270630,721.189514 1082.581421,754.835754
	C1076.650391,761.338440 1071.659668,769.107849 1067.871704,777.071411
	C1059.938843,793.748901 1066.190430,810.941284 1077.181152,821.611267
	C1090.954468,834.982849 1117.388916,835.031189 1130.255493,826.423706
	C1138.472412,820.926697 1146.289307,814.552002 1153.278687,807.563721
	C1164.313599,796.530518 1174.470703,784.621826 1185.057007,773.137024
	C1200.836304,756.018433 1216.632202,738.914917 1232.485962,721.865295
	C1243.115723,710.433716 1253.857788,699.106628 1264.802490,687.463623
	C1266.544800,689.027161 1268.117676,690.215454 1269.424316,691.646790
	C1279.052002,702.193604 1288.567383,712.843506 1298.229248,723.358765
	C1325.435913,752.968201 1352.464233,782.748352 1380.112061,811.940918
	C1386.368896,818.547363 1394.240967,824.305298 1402.425903,828.277161
	C1427.183594,840.291321 1456.599487,825.256714 1462.389526,799.053162
	C1466.273560,781.475159 1460.200684,767.061157 1449.015503,754.282410
	C1440.043823,744.032471 1430.452393,734.326904 1421.201660,724.319153
	C1397.290771,698.451660 1373.397217,672.567871 1349.536987,646.653687
	C1341.270508,637.675598 1333.122559,628.588501 1324.729980,619.341492
	C1331.747437,611.660461 1338.171509,604.488708 1344.745728,597.457214
	C1374.261475,565.888306 1403.895020,534.429077 1433.312744,502.769257
	C1441.215820,494.263885 1449.595947,485.899078 1455.877686,476.246674
	C1474.468018,447.680603 1459.315063,417.462189 1427.712891,412.500641
	C1410.098999,409.735291 1395.043457,416.613098 1382.499268,428.755707
	C1374.136475,436.850830 1366.208130,445.406586 1358.282227,453.939056
	C1333.639038,480.467957 1309.104126,507.097504 1284.493408,533.656616
	C1278.697021,539.911926 1272.767944,546.044312 1266.518921,552.635132
	C1262.104736,547.862000 1258.310669,543.740479 1254.496216,539.638000
	C1238.648804,522.593933 1222.843750,505.510132 1206.931030,488.527191
	C1188.501709,468.858490 1170.220825,449.041229 1151.401123,429.751404
	C1139.825073,417.886139 1125.484131,411.448486 1108.512695,412.093140
	C1082.432129,413.083740 1063.500122,435.964386 1068.485840,460.778320
	C1070.278809,469.702148 1074.312988,477.806641 1080.469482,484.579712
	C1092.985840,498.349762 1105.712280,511.928925 1118.332764,525.604492
	C1137.710083,546.601746 1157.071167,567.614136 1176.439697,588.619568
	C1186.317017,599.331665 1196.195312,610.042725 1206.332886,621.035828
	C1196.738525,631.240051 1187.409424,641.162170 1177.171997,652.177490
M3414.332275,251.513153
	C3414.813232,243.747162 3415.294434,235.981171 3415.813232,227.608017
	C3408.429443,227.066559 3402.505127,226.262222 3396.579834,226.254257
	C3330.265625,226.165253 3263.951660,226.199738 3197.637451,226.197220
	C3194.638672,226.197098 3191.639893,226.173553 3188.641357,226.139328
	C3171.328857,225.941742 3154.014160,225.471954 3136.704834,225.625351
	C3124.320801,225.735077 3114.431396,231.148041 3106.994873,241.275497
	C3098.312744,253.100082 3095.258301,266.360474 3095.648438,280.746826
	C3096.341064,306.286438 3111.740723,331.200256 3146.027344,330.366882
	C3198.929932,329.081055 3251.858154,328.868896 3304.775635,328.208771
	C3307.676514,328.172577 3310.578369,328.204071 3314.107910,328.204071
	C3314.107910,331.855316 3314.224365,334.782379 3314.087158,337.697510
	C3313.541260,349.300629 3312.830078,360.896393 3312.341553,372.501678
	C3311.600830,390.089569 3310.886719,407.679871 3310.357178,425.275055
	C3309.587158,450.865845 3309.058350,476.463928 3308.297363,502.055023
	C3307.852295,517.022583 3314.945801,527.366943 3327.630127,534.362244
	C3342.282715,542.443115 3357.792969,544.036316 3373.983643,540.245361
	C3400.669922,533.996826 3411.186523,520.359436 3411.644531,495.098480
	C3412.428223,451.847137 3413.147949,408.593689 3413.635010,365.338226
	C3414.054932,328.033905 3414.113525,290.725525 3414.332275,251.513153
M3579.639893,79.364113
	C3579.183838,73.970734 3574.966553,75.628807 3572.037842,75.587090
	C3534.431885,75.051315 3496.824707,74.411720 3459.216064,74.253860
	C3406.894531,74.034225 3354.571045,74.310081 3302.249268,74.131569
	C3286.703369,74.078522 3275.461670,80.841675 3268.000244,94.068535
	C3260.014404,108.224281 3257.943604,123.382706 3260.933105,139.381500
	C3265.731445,165.058319 3285.561279,179.085388 3308.725342,178.420120
	C3345.011475,177.377975 3381.338867,177.818161 3417.647217,177.473557
	C3425.924072,177.395020 3434.191406,176.455002 3442.469971,176.304291
	C3454.052734,176.093460 3465.642578,176.251129 3477.806885,176.251129
	C3477.971680,179.626587 3478.304688,182.200043 3478.186523,184.752594
	C3477.633545,196.685196 3476.857422,208.607803 3476.345947,220.541901
	C3475.591797,238.132614 3474.889160,255.726852 3474.354736,273.325378
	C3473.587646,298.582794 3473.156494,323.851257 3472.265137,349.103821
	C3471.656494,366.335236 3480.228516,377.547791 3495.047607,384.381897
	C3512.869873,392.601166 3531.310791,392.498291 3549.383545,385.437561
	C3559.823730,381.358765 3568.768066,374.502808 3572.265137,363.218292
	C3574.294189,356.672791 3575.394775,349.609985 3575.546387,342.749786
	C3576.473633,300.831940 3577.030762,258.905792 3577.670166,216.981750
	C3578.360352,171.726440 3579.006104,126.470436 3579.639893,79.364113
M1988.854004,820.158691
	C2001.279419,834.419495 2032.943359,834.977112 2046.857178,827.853394
	C2057.586182,822.360168 2065.180664,814.582092 2068.443604,803.110596
	C2069.866943,798.106079 2070.212891,792.667847 2070.261963,787.419189
	C2070.822266,727.517883 2071.105225,667.613770 2071.749023,607.713501
	C2071.968506,587.292603 2075.957031,567.467590 2083.766113,548.530273
	C2090.911865,531.202148 2101.479736,516.651978 2118.143311,507.185577
	C2131.474609,499.612244 2145.994385,496.883484 2161.105469,496.139984
	C2168.365723,495.782715 2175.946533,495.893799 2182.769531,493.798065
	C2205.945557,486.679230 2214.016846,471.350098 2213.331055,451.455261
	C2212.598877,430.232666 2202.998535,417.831238 2180.503174,413.876038
	C2148.507080,408.250336 2119.085693,415.624481 2093.202881,435.379364
	C2085.434326,441.308624 2078.715332,448.613159 2071.483643,455.317108
	C2071.035889,454.634644 2070.464600,454.167816 2070.451416,453.685699
	C2069.853516,431.870758 2056.330811,415.746460 2030.857666,412.527802
	C2003.563232,409.079071 1975.706543,427.324554 1975.976196,459.578705
	C1976.884277,568.154663 1976.321777,676.742920 1976.321777,785.326477
	C1976.321777,787.324951 1976.206909,789.331360 1976.343018,791.320557
	C1977.064331,801.865112 1979.674438,811.649902 1988.854004,820.158691
M2216.316650,510.999969
	C2216.316650,533.325867 2216.316406,555.651794 2216.316406,577.977722
	C2216.316406,648.954224 2216.329834,719.930786 2216.306641,790.907288
	C2216.301025,807.567871 2224.128662,819.282837 2238.640137,826.912415
	C2247.147217,831.384949 2256.268066,832.218811 2265.721191,832.293152
	C2288.657959,832.473511 2312.123047,818.621094 2311.900391,786.357727
	C2311.277344,696.058594 2311.683594,605.752380 2311.683594,515.448914
	C2311.683594,495.455536 2311.749756,475.461823 2311.661621,455.468842
	C2311.593750,440.108185 2305.981201,427.255646 2292.248535,419.668274
	C2273.810547,409.481079 2254.809570,409.113861 2236.183838,419.639740
	C2222.512451,427.365631 2216.044678,439.230194 2216.259521,455.018555
	C2216.504639,473.009277 2216.316650,491.005890 2216.316650,510.999969
M1292.934692,986.011780
	C1280.245239,974.779602 1264.848633,972.853760 1248.966187,974.183838
	C1231.505127,975.646057 1218.318604,984.923096 1207.427246,999.142151
	C1207.427246,992.034729 1207.427246,984.927307 1207.427246,977.798828
	C1202.590210,977.798828 1198.733276,977.798828 1194.943848,977.798828
	C1194.943848,1024.845459 1194.943848,1071.302368 1194.943848,1117.520752
	C1199.483032,1117.520752 1203.323364,1117.520752 1207.724365,1117.520752
	C1207.724365,1113.633057 1207.724365,1110.349609 1207.724487,1107.066162
	C1207.724976,1083.066650 1207.244995,1059.054810 1207.852295,1035.070679
	C1208.546875,1007.642883 1225.450806,982.961304 1258.741089,985.273438
	C1275.151123,986.413208 1286.984985,993.707886 1294.219971,1008.521057
	C1298.248291,1016.768799 1299.500000,1025.593506 1299.554932,1034.573364
	C1299.703735,1058.905273 1299.606079,1083.238770 1299.606079,1107.571655
	C1299.606079,1110.823364 1299.606079,1114.075195 1299.606079,1117.511353
	C1304.201904,1117.511353 1307.955566,1117.511353 1312.393921,1117.511353
	C1312.393921,1113.622192 1312.393921,1110.337769 1312.393921,1107.053467
	C1312.393921,1083.387207 1311.926758,1059.709473 1312.514893,1036.057861
	C1313.218018,1007.786255 1330.085327,982.016357 1365.613525,985.408691
	C1382.376831,987.009338 1394.421509,995.677185 1400.057251,1011.465454
	C1402.780640,1019.095215 1403.922485,1027.616333 1404.092896,1035.769165
	C1404.601562,1060.091431 1404.261353,1084.431152 1404.294556,1108.764038
	C1404.298584,1111.671753 1404.561768,1114.579224 1404.712158,1117.634888
	C1408.807739,1117.634888 1412.291992,1117.634888 1416.272827,1117.634888
	C1416.272827,1085.868286 1416.767456,1054.587524 1416.027588,1023.335999
	C1415.734741,1010.968933 1411.120239,999.476257 1402.103271,990.078552
	C1388.088989,975.472534 1370.655518,972.014221 1351.718506,974.586975
	C1335.128784,976.840881 1321.578491,984.593811 1313.547363,1000.113708
	C1312.123047,1002.866028 1310.714233,1005.626343 1309.552734,1007.887390
	C1304.188599,1000.711121 1299.070679,993.864197 1292.934692,986.011780
M2250.560547,391.210022
	C2262.909424,393.405792 2275.117432,392.925171 2286.730225,387.990326
	C2301.224365,381.831207 2310.669922,371.332520 2311.804932,355.029724
	C2312.309326,347.781616 2312.550781,340.326355 2311.434814,333.196198
	C2309.496582,320.810822 2302.947266,311.386993 2291.465820,305.217590
	C2276.835938,297.356384 2261.610840,296.130707 2246.174561,300.730408
	C2228.819092,305.901917 2215.640381,317.387726 2215.663086,339.845734
	C2215.665771,342.505707 2215.659180,345.165680 2215.663818,347.825653
	C2215.704834,371.955200 2225.549805,384.571014 2250.560547,391.210022
M2072.234619,1090.836670
	C2072.234619,1099.730469 2072.234619,1108.624390 2072.234619,1117.706055
	C2077.163574,1117.706055 2081.015381,1117.706055 2085.252441,1117.706055
	C2085.252441,1053.557739 2085.252441,989.844482 2085.252441,926.012878
	C2080.681152,926.012878 2076.615479,926.012878 2072.270752,926.012878
	C2072.270752,935.798035 2072.270752,944.777405 2072.270752,953.756714
	C2072.270752,962.743774 2072.441650,971.735107 2072.221436,980.716736
	C2072.011230,989.302734 2073.252197,998.008850 2071.144531,1007.539246
	C2065.101074,997.454529 2058.028809,990.189819 2049.317627,984.346619
	C2036.759766,975.923279 2022.755127,974.639343 2008.254395,975.195496
	C1987.682983,975.984436 1970.522949,984.283569 1959.100952,1001.195740
	C1940.342529,1028.970337 1940.142578,1058.828979 1955.319946,1087.931885
	C1966.647217,1109.652100 1986.311157,1119.529663 2010.951172,1120.258057
	C2035.933960,1120.996460 2055.557617,1112.094360 2069.259277,1090.875732
	C2069.769775,1090.085083 2071.050049,1089.791260 2072.234619,1090.836670
M508.641937,975.726135
	C497.491882,995.532104 493.822845,1016.830322 496.303375,1039.245605
	C499.551605,1068.597900 512.377197,1092.345093 537.968811,1108.142090
	C553.099548,1117.481934 569.802368,1120.740112 587.505981,1120.193481
	C621.343994,1119.148315 646.602112,1104.128906 662.398193,1074.187622
	C672.572144,1054.902832 675.079834,1034.214966 672.516724,1012.515442
	C668.874817,981.682739 648.691528,949.286072 613.273560,938.308594
	C576.268494,926.839355 531.831787,937.753967 508.641937,975.726135
M1080.371826,1116.904907
	C1091.289429,1120.877808 1102.688965,1120.794922 1113.933105,1119.897705
	C1131.551758,1118.491699 1146.592896,1111.152222 1157.818848,1097.227783
	C1163.651489,1089.993042 1167.812500,1081.805908 1168.511841,1071.808228
	C1163.880859,1071.808228 1160.066528,1071.808228 1156.440430,1071.808228
	C1145.683838,1107.723145 1111.914062,1113.211914 1087.770020,1107.242310
	C1063.919189,1101.345337 1046.527100,1076.751221 1049.337891,1052.155762
	C1089.061768,1052.155762 1128.889526,1052.155762 1169.391113,1052.155762
	C1171.910034,1030.468994 1168.663574,1011.178955 1153.941040,995.117554
	C1139.955444,979.860046 1122.125732,974.731995 1101.773804,975.087891
	C1069.806152,975.646912 1046.319458,992.662170 1038.341797,1023.645935
	C1035.903809,1033.114624 1036.105713,1043.335938 1035.690063,1053.237427
	C1034.771729,1075.116211 1048.479492,1106.256836 1080.371826,1116.904907
M168.426804,939.211365
	C165.481857,939.211365 162.536896,939.211365 159.308502,939.211365
	C136.847977,998.968750 114.622292,1058.101318 92.208092,1117.735474
	C97.452263,1117.735474 101.674767,1117.735474 106.170586,1117.735474
	C111.929855,1102.336060 117.592087,1087.196289 123.256302,1072.051025
	C152.167694,1072.051025 180.638092,1072.051025 208.841675,1072.051025
	C214.787781,1087.854004 220.474670,1102.968018 225.915604,1117.428345
	C231.160431,1117.428345 235.218506,1117.428345 239.772491,1117.428345
	C231.682053,1095.830078 223.861847,1075.047607 216.110550,1054.239380
	C202.574448,1017.901855 189.122223,981.533020 175.478043,945.236206
	C174.547791,942.761597 174.243973,938.967651 168.426804,939.211365
M907.490173,1001.006531
	C912.510925,1012.891907 922.053528,1019.812988 933.677551,1024.006836
	C943.666748,1027.610718 953.953369,1030.381226 964.032288,1033.748535
	C971.883240,1036.371582 979.942932,1038.678833 987.339722,1042.293213
	C1007.059570,1051.929077 1010.550842,1074.944702 999.405884,1091.555908
	C992.013062,1102.574463 980.825623,1107.613159 968.219727,1108.732666
	C951.105530,1110.252808 934.648315,1107.836426 923.335022,1092.991211
	C919.043213,1087.359497 916.580933,1080.333496 913.223083,1073.823486
	C909.736328,1073.823486 905.933655,1073.823486 901.531616,1073.823486
	C902.447754,1087.949951 908.868469,1098.441528 918.919556,1106.758301
	C938.595520,1123.039062 974.273193,1125.384888 996.037292,1111.386597
	C1011.756287,1101.276245 1019.084839,1086.551636 1017.912048,1067.476562
	C1016.756287,1048.678589 1006.875610,1036.718262 990.107178,1029.905029
	C982.448547,1026.793091 974.393616,1024.662964 966.540283,1022.022339
	C955.879578,1018.437622 944.744324,1015.816772 934.691650,1010.962158
	C911.878052,999.945007 910.984558,969.070862 928.265076,955.021423
	C943.082825,942.974487 969.007385,941.571289 985.501953,951.484741
	C994.813538,957.080933 1000.354919,965.419739 1003.926697,974.677124
	C1008.482544,974.677124 1012.275208,974.677124 1016.483398,974.677124
	C1016.215332,972.337036 1016.173645,970.681824 1015.803406,969.103760
	C1015.430298,967.513123 1014.876404,965.926941 1014.151917,964.462341
	C1006.820984,949.643005 995.487671,939.339294 979.085510,936.194580
	C970.038391,934.459961 960.502380,933.497742 951.375488,934.309265
	C929.234741,936.278076 910.645142,948.873901 905.322327,969.303955
	C902.624023,979.661011 903.814087,989.643555 907.490173,1001.006531
M1747.907471,987.005859
	C1730.454834,974.617126 1710.686890,972.969299 1690.596191,976.337830
	C1673.371582,979.225708 1658.759033,987.659851 1649.004883,1002.940125
	C1631.951416,1029.655273 1631.867065,1057.479736 1644.784912,1085.500854
	C1650.618286,1098.154297 1660.624634,1107.442993 1673.581299,1113.412842
	C1691.669189,1121.747070 1710.133301,1122.519775 1728.967285,1116.848145
	C1748.242676,1111.043701 1761.622314,1098.630371 1769.705566,1080.180664
	C1774.207764,1069.904541 1775.894897,1059.202393 1775.977295,1048.154785
	C1776.157471,1023.998779 1768.821045,1003.153564 1747.907471,987.005859
M2632.383057,1054.697876
	C2632.382568,1049.369629 2632.740234,1044.013062 2632.320801,1038.718018
	C2630.249023,1012.578735 2618.550049,992.449219 2594.316162,981.123047
	C2578.418457,973.692810 2561.476318,973.482422 2544.533691,977.028870
	C2533.311768,979.377991 2523.399170,984.584595 2514.796875,992.267761
	C2489.808105,1014.586121 2488.190430,1057.745605 2500.249268,1082.626465
	C2512.838623,1108.602173 2534.497314,1119.704102 2563.036865,1120.307495
	C2597.191650,1121.029663 2629.493896,1096.979004 2632.383057,1054.697876
M1800.276001,1023.000061
	C1800.276001,1054.540039 1800.276001,1086.080078 1800.276001,1117.640381
	C1805.260132,1117.640381 1809.111816,1117.640381 1813.723877,1117.640381
	C1813.723877,1113.895386 1813.723877,1110.631592 1813.723877,1107.367798
	C1813.723999,1085.051025 1813.688477,1062.734009 1813.754883,1040.417480
	C1813.767700,1036.100220 1813.824219,1031.730225 1814.468750,1027.476807
	C1817.177490,1009.599243 1825.332764,995.011475 1842.999756,988.717346
	C1860.711548,982.407410 1878.355347,983.030701 1893.859741,995.618774
	C1896.397095,997.678833 1898.609375,1000.257690 1900.559937,1002.900757
	C1907.551025,1012.373108 1909.447510,1023.446838 1909.542725,1034.810791
	C1909.749390,1059.457520 1909.606323,1084.107056 1909.606323,1108.755493
	C1909.606323,1111.654785 1909.606445,1114.554077 1909.606445,1117.450195
	C1914.328491,1117.450195 1918.081421,1117.450195 1921.699097,1117.450195
	C1921.699097,1085.846680 1922.060181,1054.921997 1921.478027,1024.015137
	C1921.304688,1014.812195 1917.959473,1005.916016 1913.051270,997.737732
	C1895.316650,968.187134 1845.354004,967.036255 1825.076294,988.028931
	C1821.527466,991.702942 1818.204102,995.594727 1813.579346,1000.710327
	C1813.579346,992.115051 1813.579346,985.027771 1813.579346,977.743896
	C1808.742432,977.743896 1804.887085,977.743896 1800.276001,977.743896
	C1800.276001,992.511169 1800.276001,1006.755615 1800.276001,1023.000061
M2224.278564,1040.985596
	C2224.277344,1046.983276 2224.493164,1052.990723 2224.229004,1058.976807
	C2223.677246,1071.474976 2220.781250,1083.332520 2212.728516,1093.270142
	C2200.365479,1108.527100 2176.325684,1113.396851 2158.034424,1107.133789
	C2140.161621,1101.014038 2130.864502,1086.653931 2128.425049,1066.079468
	C2128.191406,1064.107788 2128.390869,1062.084717 2128.390869,1060.085449
	C2128.390625,1035.095215 2128.409180,1010.104980 2128.361328,985.114929
	C2128.356445,982.613403 2127.947021,980.112671 2127.733398,977.703491
	C2123.365967,977.703491 2119.822021,977.703491 2115.609619,977.703491
	C2115.609619,990.128662 2115.529541,1002.080078 2115.628418,1014.029907
	C2115.780029,1032.338013 2115.538330,1050.670654 2116.446533,1068.944092
	C2117.135498,1082.811523 2121.561035,1095.571045 2132.215576,1105.495361
	C2142.695312,1115.256958 2154.985596,1119.542847 2169.235107,1120.363770
	C2189.072754,1121.506592 2205.793945,1116.136841 2218.597168,1100.461426
	C2220.142822,1098.569092 2221.507080,1096.528809 2224.400146,1092.589844
	C2224.400146,1102.523438 2224.400146,1109.995605 2224.400146,1117.720825
	C2229.125977,1117.720825 2232.976807,1117.720825 2237.171387,1117.720825
	C2237.171387,1070.880371 2237.171387,1024.454834 2237.171387,977.741089
	C2232.760742,977.741089 2228.905762,977.741089 2224.278564,977.741089
	C2224.278564,998.501038 2224.278564,1018.745605 2224.278564,1040.985596
M1551.181885,1109.214600
	C1526.650269,1107.852173 1510.015869,1095.589844 1501.672729,1072.579102
	C1497.422119,1060.855591 1496.798340,1048.519897 1498.456055,1036.212524
	C1503.882935,995.916382 1536.209229,978.595642 1572.376709,988.524658
	C1589.783081,993.303101 1601.315430,1005.396606 1605.123047,1023.511963
	C1609.844116,1023.511963 1613.942261,1023.511963 1618.483398,1023.511963
	C1615.296143,1007.431335 1607.646729,995.139465 1594.721436,986.094543
	C1578.685791,974.872986 1560.523926,973.494873 1542.112549,975.748108
	C1518.681030,978.615845 1501.395142,990.761780 1491.622803,1012.843445
	C1484.411377,1029.138062 1483.338135,1046.086304 1486.232544,1063.304688
	C1490.643433,1089.544556 1504.468262,1108.209839 1530.423340,1117.090576
	C1541.166870,1120.766479 1552.135620,1120.818237 1562.976440,1119.915283
	C1584.903198,1118.089111 1602.111572,1107.858765 1612.765503,1088.113770
	C1615.651001,1082.765747 1618.214844,1077.052246 1618.080444,1070.570312
	C1613.550659,1070.570312 1609.702148,1070.570312 1607.402344,1070.570312
	C1602.420166,1078.963989 1599.022095,1087.110474 1593.524780,1093.431274
	C1583.055542,1105.469360 1568.589722,1109.172974 1551.181885,1109.214600
M2366.383545,1097.647949
	C2358.162842,1103.623901 2349.086182,1107.383057 2338.953125,1108.714600
	C2315.580322,1111.786255 2292.687256,1102.554810 2282.091064,1080.899536
	C2271.237549,1058.718140 2271.614746,1035.931152 2282.264404,1013.794678
	C2285.170654,1007.753845 2290.312744,1002.440002 2295.392578,997.862000
	C2308.229248,986.293335 2324.182861,984.182251 2340.363770,986.540955
	C2360.107666,989.419128 2374.796387,999.675598 2380.864990,1019.833313
	C2381.310791,1021.314209 2382.238770,1022.649963 2382.753174,1023.676147
	C2387.292725,1023.676147 2391.176025,1023.676147 2395.138428,1023.676147
	C2391.315674,1002.107971 2379.204346,987.681152 2359.509521,979.787537
	C2343.558594,973.394592 2326.996826,973.490662 2310.538330,977.455505
	C2288.011475,982.882263 2273.381104,997.227539 2266.044678,1018.998901
	C2259.456543,1038.548950 2259.982178,1058.322021 2266.586182,1077.625610
	C2270.474121,1088.989380 2276.986328,1099.146484 2287.029785,1106.464355
	C2311.161621,1124.047729 2337.402100,1124.697144 2363.562500,1113.327881
	C2381.379395,1105.584717 2392.017090,1090.470825 2395.403809,1070.341431
	C2390.804199,1070.341431 2386.864990,1070.341431 2382.460205,1070.341431
	C2380.021729,1080.612671 2375.543457,1089.696533 2366.383545,1097.647949
M2817.311523,1093.580200
	C2806.030762,1110.302002 2789.501709,1111.158691 2772.084473,1107.918335
	C2756.897461,1105.093018 2745.924805,1096.995483 2743.172607,1080.735596
	C2738.707764,1080.735596 2734.613770,1080.735596 2730.146484,1080.735596
	C2731.972168,1091.897095 2735.275635,1101.508667 2744.265137,1107.947876
	C2763.892822,1122.006470 2785.541016,1123.890259 2807.790771,1116.378662
	C2824.707031,1110.667847 2832.671143,1097.526611 2832.392578,1079.519165
	C2832.165771,1064.840576 2825.210449,1056.289185 2807.511475,1050.031982
	C2796.898926,1046.280151 2785.900391,1043.611694 2775.320557,1039.778931
	C2768.538330,1037.321777 2761.512695,1034.555420 2755.814209,1030.297485
	C2744.593506,1021.913391 2744.504395,1006.447144 2753.980469,996.138062
	C2764.329834,984.878723 2787.156494,983.328369 2800.522461,989.669861
	C2809.173828,993.774719 2814.918701,1000.020203 2817.882568,1008.996887
	C2818.788818,1011.740967 2819.670898,1014.492981 2820.374023,1016.656250
	C2824.720947,1016.656250 2828.184082,1016.656250 2831.629150,1016.656250
	C2831.238770,1002.288391 2826.924072,992.851440 2816.271973,985.365234
	C2796.805664,971.684265 2775.843994,971.464539 2754.909180,981.066711
	C2740.699219,987.584412 2733.352295,999.466370 2734.323242,1015.520447
	C2735.250000,1030.843872 2743.950928,1040.623779 2757.814941,1045.819214
	C2768.071045,1049.662598 2778.692627,1052.520630 2789.078125,1056.034180
	C2795.644287,1058.255615 2802.508057,1060.109131 2808.476562,1063.477661
	C2820.430176,1070.223999 2822.903809,1078.874512 2817.311523,1093.580200
M734.270874,1076.999512
	C734.270874,1090.526367 734.270874,1104.053223 734.270874,1117.510742
	C739.574768,1117.510742 743.380188,1117.510742 748.046570,1117.510742
	C748.046570,1060.152710 748.046570,1003.418213 748.046570,945.820190
	C765.770874,945.820190 782.613586,945.820190 799.396973,945.820190
	C799.396973,941.996460 799.396973,939.057922 799.396973,935.662415
	C760.879028,935.662415 722.687927,935.662415 684.050964,935.662415
	C684.050964,939.085449 684.050964,942.244995 684.050964,946.344604
	C700.826050,946.344604 717.314148,946.344604 734.270874,946.344604
	C734.270874,989.852844 734.270874,1032.426270 734.270874,1076.999512
M2425.632324,1003.138672
	C2425.632324,1027.766602 2425.597412,1052.394531 2425.663086,1077.022217
	C2425.675537,1081.664673 2425.793945,1086.342651 2426.368408,1090.941162
	C2428.325439,1106.603027 2437.311768,1116.195923 2452.465820,1117.624878
	C2461.608154,1118.486816 2470.898193,1117.783447 2480.569580,1117.783447
	C2480.246826,1113.896118 2479.986328,1110.761108 2479.694580,1107.246826
	C2474.925537,1107.246826 2470.954834,1107.282471 2466.984863,1107.240967
	C2445.266113,1107.013672 2438.492188,1101.251343 2438.395752,1078.869263
	C2438.278320,1051.579346 2438.355469,1024.288574 2438.385254,996.998230
	C2438.388184,994.080444 2438.634033,991.162964 2438.813232,987.243652
	C2452.777344,987.243652 2466.240234,987.243652 2479.769531,987.243652
	C2479.769531,983.376343 2479.769531,980.566162 2479.769531,977.084473
	C2465.942383,977.084473 2452.692139,977.084473 2438.448486,977.084473
	C2438.448486,964.966248 2438.448486,953.489990 2438.448486,941.893066
	C2433.625977,941.893066 2429.852295,941.893066 2425.421875,941.893066
	C2425.421875,953.773804 2425.421875,965.020447 2425.421875,977.126953
	C2418.220459,977.126953 2411.668457,977.126953 2404.815918,977.126953
	C2404.815918,980.832825 2404.815918,983.653870 2404.815918,987.441528
	C2411.806396,987.441528 2418.317871,987.441528 2424.407471,987.441528
	C2425.056885,989.000671 2425.506836,989.593506 2425.521973,990.197327
	C2425.614014,993.855957 2425.606689,997.517090 2425.632324,1003.138672
M2673.568848,1015.162292
	C2681.491699,991.943726 2701.033203,987.929993 2721.740723,986.559204
	C2721.740723,982.146240 2721.740723,978.332275 2721.740723,973.435852
	C2714.498291,974.372253 2707.777344,974.446533 2701.571777,976.272522
	C2695.654785,978.013550 2689.812256,980.933960 2684.789307,984.527161
	C2679.739014,988.140137 2675.739258,993.221741 2669.893555,999.038574
	C2669.893555,990.632385 2669.893555,984.182312 2669.893555,977.714600
	C2665.472412,977.714600 2661.924561,977.714600 2658.113770,977.714600
	C2658.113770,1024.584229 2658.113770,1070.997925 2658.113770,1117.517578
	C2662.380859,1117.517578 2666.152588,1117.517578 2670.357422,1117.517578
	C2670.357422,1092.347290 2670.149658,1067.761353 2670.467529,1043.182129
	C2670.582520,1034.297729 2671.957520,1025.429565 2673.568848,1015.162292
M458.281799,994.999939
	C458.281799,1035.811768 458.281799,1076.623535 458.281799,1117.646240
	C462.789093,1117.646240 466.264221,1117.646240 469.927704,1117.646240
	C469.927704,1056.786743 469.927704,996.413208 469.927704,935.776489
	C465.962585,935.776489 462.465668,935.776489 458.281799,935.776489
	C458.281799,955.215332 458.281799,974.107605 458.281799,994.999939
M258.281799,969.004272
	C258.281799,1018.467224 258.281799,1067.930176 258.281799,1117.665283
	C262.753632,1117.665283 266.227417,1117.665283 269.948181,1117.665283
	C269.948181,1056.821899 269.948181,996.445129 269.948181,935.761719
	C266.004730,935.761719 262.507263,935.761719 258.281799,935.761719
	C258.281799,946.525696 258.281799,956.766296 258.281799,969.004272
M1447.667847,1017.000427
	C1447.667847,1050.490967 1447.667847,1083.981445 1447.667847,1117.450439
	C1452.468262,1117.450439 1456.234375,1117.450439 1459.673584,1117.450439
	C1459.673584,1070.391602 1459.673584,1023.971130 1459.673584,977.791138
	C1455.468506,977.791138 1451.927246,977.791138 1447.667847,977.791138
	C1447.667847,990.510742 1447.667847,1002.755615 1447.667847,1017.000427
M370.674774,1099.884521
	C368.495789,1099.268433 366.313324,1098.122681 364.138489,1098.136963
	C357.957764,1098.177612 354.112274,1102.773682 354.269623,1109.348511
	C354.398071,1114.714722 358.143036,1118.765625 363.514618,1119.349243
	C369.228790,1119.970215 375.041809,1115.538086 375.071442,1109.617310
	C375.086304,1106.647461 373.079651,1103.667236 370.674774,1099.884521
M805.648743,1104.537476
	C803.820923,1112.581543 806.195435,1117.714600 812.426575,1119.189209
	C818.597168,1120.649292 824.469360,1116.797974 825.347229,1110.284546
	C825.946899,1105.835205 824.502625,1101.912598 820.414246,1099.408569
	C815.741333,1096.546509 811.792114,1097.552246 805.648743,1104.537476
M1444.311401,940.012024
	C1446.437622,941.924133 1448.269653,944.502319 1450.755493,945.600159
	C1455.032471,947.489014 1460.445435,945.308777 1462.782593,941.266113
	C1465.130615,937.204712 1464.891357,933.059143 1462.048706,929.260681
	C1459.138672,925.371887 1454.066895,923.998657 1449.656494,926.059814
	C1444.376343,928.527405 1443.162842,933.092041 1444.311401,940.012024
z"/>
<path fill="#FDFDFD" opacity="1.000000" stroke="none"
	d="
M292.868835,619.206177
	C258.319733,575.664185 225.335846,531.788269 190.110794,489.476501
	C193.654343,540.005859 191.246033,589.984619 191.595825,639.920776
	C191.946030,689.914429 191.747040,739.912537 191.634338,789.908386
	C191.591995,808.691284 180.529892,824.023621 162.501892,829.597778
	C148.169830,834.029175 133.405136,833.848572 119.317314,828.759033
	C102.281105,822.604431 93.964539,809.336243 92.349129,791.606689
	C92.198540,789.953796 92.327347,788.275452 92.327347,786.608887
	C92.327255,643.953369 92.337433,501.297913 92.314804,358.642426
	C92.311874,340.172852 98.266838,324.538483 114.386765,314.376038
	C134.901947,301.442749 165.666809,303.940887 182.432587,321.874207
	C193.974304,334.219635 204.356873,347.699707 214.714676,361.092499
	C265.096527,426.236969 315.322327,491.502228 365.547729,556.767578
	C390.659210,589.398682 415.642670,622.128235 440.712921,654.791016
	C443.061035,657.850220 445.617157,660.749634 449.605072,665.571106
	C449.081268,657.236755 448.607544,651.232910 448.340332,645.219910
	C443.917114,545.671875 447.456512,446.069702 446.345123,346.498596
	C446.184387,332.097076 453.373840,321.675232 465.386261,314.804962
	C484.227509,304.029053 504.110840,303.520355 523.777039,312.028046
	C538.270081,318.297760 544.727722,330.708893 545.654907,346.162567
	C545.774475,348.155273 545.672668,350.161255 545.672668,352.161102
	C545.672791,494.483307 545.391296,636.806458 545.879883,779.126953
	C545.995300,812.748718 520.293579,831.325806 493.396515,832.284302
	C468.815765,833.160278 450.676666,822.935242 436.080231,804.034119
	C389.399200,743.585999 342.511230,683.297729 295.705322,622.946045
	C294.893036,621.898682 294.107300,620.830688 292.868835,619.206177
z"/>
<path fill="#FDFEFE" opacity="1.000000" stroke="none"
	d="
M906.719849,417.067017
	C971.630371,441.855652 1008.226074,489.724182 1023.915344,555.125854
	C1029.030151,576.447205 1031.275513,598.213867 1031.556152,620.123535
	C1031.636108,626.361450 1030.767212,632.698181 1029.592163,638.847961
	C1026.886353,653.009277 1018.055542,661.922363 1004.270081,665.432678
	C997.898254,667.055115 991.164368,667.972473 984.592407,667.984436
	C895.598328,668.146729 806.603760,668.093384 717.609375,668.093384
	C713.952209,668.093384 710.294983,668.093384 706.012573,668.093384
	C705.957642,676.628296 709.804382,683.683899 713.337280,690.425293
	C735.954834,733.582764 771.742920,756.359009 820.551758,758.040161
	C849.107971,759.023804 876.009949,752.695679 900.669678,738.015564
	C906.344482,734.637207 911.572571,730.449829 916.765808,726.331604
	C935.823364,711.218628 960.315430,709.809448 976.631042,722.659668
	C990.134155,733.294739 996.172974,752.531250 990.532715,769.108093
	C986.508179,780.936157 978.511963,789.622620 969.197937,797.383728
	C941.282654,820.645020 908.601196,832.929016 873.097229,837.837158
	C857.034851,840.057617 840.674072,841.260132 824.468384,841.085938
	C779.201965,840.599426 736.018005,831.085205 697.568970,806.089539
	C650.900391,775.750427 622.624695,732.514404 612.420776,677.961853
	C603.200012,628.665955 606.701721,579.961304 625.194458,533.194336
	C652.654419,463.750092 703.485657,421.538818 777.141113,408.006073
	C820.694092,400.004089 863.800110,402.859772 906.719849,417.067017
M865.000000,594.088623
	C890.589966,594.088623 916.179932,594.088623 942.427307,594.088623
	C941.171509,575.855957 937.157776,559.154236 929.632324,543.564453
	C917.649719,518.741089 898.395142,501.786652 871.940491,493.411713
	C852.448181,487.240906 832.557861,485.457764 812.140747,487.163849
	C791.763489,488.866638 773.188782,495.119659 756.526672,506.812561
	C729.699219,525.639221 714.091675,552.005920 706.027771,583.273621
	C705.170776,586.596558 704.709595,590.021667 703.933228,594.088623
	C757.773682,594.088623 810.386841,594.088623 865.000000,594.088623
z"/>
<path fill="#FDAB1C" opacity="1.000000" stroke="none"
	d="
M3079.474121,716.813477
	C3095.383057,712.112122 3109.708740,712.991150 3122.525635,723.354858
	C3138.477539,736.253723 3142.800049,758.426025 3132.920166,776.451294
	C3127.525635,786.292725 3119.527100,793.684570 3110.882324,800.525024
	C3084.065674,821.744568 3053.120361,833.187988 3019.641602,837.677673
	C3002.255615,840.009277 2984.563477,841.685852 2967.068604,841.255188
	C2923.630371,840.185913 2881.990479,831.203186 2844.750244,807.394653
	C2805.162842,782.085632 2777.683838,747.214050 2763.821777,702.134827
	C2748.098633,651.001892 2749.927734,599.622192 2765.031006,548.948303
	C2779.810059,499.362457 2808.751709,459.705719 2853.946045,433.039459
	C2881.013428,417.068665 2910.403564,408.403503 2941.630371,405.496368
	C2975.011230,402.388733 3007.995605,403.881134 3040.273926,413.613708
	C3100.701416,431.833771 3140.851562,471.384155 3161.989258,530.457886
	C3173.317383,562.117432 3177.326172,594.972290 3176.338135,628.505066
	C3175.693359,650.388733 3164.997803,663.258179 3143.563721,667.286011
	C3139.023682,668.139221 3134.283691,668.165161 3129.635254,668.167664
	C3040.660400,668.215759 2951.685303,668.203247 2862.710449,668.203247
	C2859.063477,668.203247 2855.416504,668.203247 2850.684814,668.203247
	C2853.366943,680.527771 2858.041748,691.280640 2864.456299,701.180786
	C2888.992676,739.047668 2924.161377,757.598267 2969.093018,758.217224
	C2997.742676,758.611938 3024.404053,751.763550 3048.764893,736.554993
	C3052.969482,733.929993 3056.598877,730.389160 3060.781006,727.720886
	C3066.633301,723.987061 3072.754639,720.675537 3079.474121,716.813477
M3077.703613,549.656799
	C3076.211914,546.682129 3074.721924,543.706543 3073.228027,540.733032
	C3063.782959,521.931274 3049.528564,507.546295 3030.657959,498.776764
	C3003.411377,486.114990 2974.467041,483.434875 2945.057861,489.117126
	C2908.385010,496.202911 2881.890625,517.508667 2864.288818,549.978210
	C2857.004150,563.415771 2851.957031,577.818665 2849.598389,593.456665
	C2929.258545,593.456665 3008.303467,593.456665 3087.559570,593.456665
	C3086.508057,578.361023 3083.290039,564.534729 3077.703613,549.656799
z"/>
<path fill="#FDFDFD" opacity="1.000000" stroke="none"
	d="
M1718.290039,407.484131
	C1748.843506,413.739685 1776.047363,425.624420 1800.414917,443.462921
	C1803.873291,437.613220 1806.294556,431.677032 1810.283569,427.110443
	C1822.956543,412.603119 1839.971802,410.117432 1857.749878,412.727631
	C1883.212036,416.466003 1895.778809,434.340698 1895.743164,458.342133
	C1895.580688,567.663208 1895.399902,676.985657 1895.853394,786.305115
	C1895.974487,815.496582 1874.825439,832.799866 1849.614990,832.296021
	C1835.832153,832.020630 1822.716309,830.656433 1813.006226,820.099182
	C1807.808105,814.447693 1804.388184,807.160706 1799.915771,800.224060
	C1793.883423,804.064209 1787.383911,808.638367 1780.491211,812.513367
	C1751.713623,828.691895 1720.883301,837.766296 1687.855835,840.254639
	C1657.525146,842.539856 1628.180420,838.698792 1599.844604,828.179504
	C1556.589722,812.121826 1525.918945,782.034912 1505.714600,740.970703
	C1490.537354,710.123535 1483.283203,677.260681 1481.648804,643.045837
	C1481.269531,635.107239 1480.267578,627.164978 1480.415771,619.240479
	C1481.052979,585.145386 1485.982666,551.822998 1500.170044,520.444336
	C1527.993164,458.906982 1574.641357,420.842468 1641.248657,407.853699
	C1666.609863,402.908081 1692.007202,402.304810 1718.290039,407.484131
M1637.240112,746.021973
	C1647.909302,751.866150 1659.511108,755.083374 1671.456787,755.917786
	C1695.212280,757.577148 1718.549072,755.116333 1740.846313,745.956787
	C1763.492188,736.653870 1783.118530,723.613770 1795.905884,701.966736
	C1798.645020,697.329651 1800.473755,692.702942 1800.445923,687.019531
	C1800.233643,643.687622 1800.276245,600.353943 1800.408569,557.021423
	C1800.422363,552.486572 1799.279419,548.725281 1796.889648,544.923096
	C1781.545776,520.509827 1759.625366,504.423676 1732.728760,495.229462
	C1703.109253,485.104401 1673.316406,484.352753 1644.314819,497.663147
	C1611.285034,512.822327 1591.887817,539.591125 1581.978516,573.737793
	C1572.883179,605.080261 1573.489624,636.851807 1580.881836,668.278015
	C1588.627319,701.206970 1605.136719,728.554810 1637.240112,746.021973
z"/>
<path fill="#FDAB1C" opacity="1.000000" stroke="none"
	d="
M2605.275146,674.259766
	C2589.929688,668.057678 2574.463135,665.858459 2558.940430,664.273621
	C2530.238525,661.343323 2501.432617,659.344116 2472.790771,655.941833
	C2447.690186,652.960205 2422.930664,647.938660 2399.455566,637.929565
	C2364.178223,622.888489 2343.029785,596.896423 2337.741943,558.607239
	C2335.128662,539.684509 2335.191895,520.888367 2340.906738,502.383911
	C2349.089600,475.887207 2365.254883,455.438873 2387.865723,439.811096
	C2412.679199,422.660675 2440.432373,413.233551 2469.933594,408.022278
	C2496.009521,403.416077 2522.319336,403.218536 2548.513184,404.471771
	C2578.757568,405.918762 2608.543945,411.006989 2636.667725,423.240570
	C2668.510986,437.092163 2692.370605,459.103333 2706.201416,491.265656
	C2714.214600,509.899841 2708.454102,528.761047 2691.489014,540.208008
	C2677.831543,549.423218 2662.992188,552.118652 2646.825928,548.355774
	C2636.033936,545.843811 2627.417480,540.052063 2623.177002,530.187805
	C2612.646240,505.690643 2592.082275,495.252808 2568.116211,490.619751
	C2537.913086,484.780975 2507.438232,483.992981 2477.318115,492.141510
	C2464.325439,495.656372 2452.317871,501.077606 2442.538086,510.732147
	C2432.176758,520.960754 2429.101562,533.338440 2432.121582,547.170227
	C2433.732178,554.546753 2437.848633,561.030396 2445.240723,563.730164
	C2453.882324,566.886292 2462.771484,570.231445 2471.809082,571.270996
	C2497.174561,574.188477 2522.728027,575.455872 2548.102539,578.309265
	C2584.035889,582.350037 2620.041748,586.200378 2654.140869,599.724060
	C2691.866455,614.685730 2714.927734,640.809692 2720.498779,681.949341
	C2726.213867,724.153320 2714.907471,760.301514 2684.309082,789.911926
	C2667.105957,806.559631 2646.333252,817.783813 2623.867676,825.745361
	C2597.685059,835.024353 2570.652832,839.134705 2542.857910,840.479126
	C2509.763428,842.079895 2477.193848,839.483276 2445.093506,832.008911
	C2420.342773,826.245728 2396.811768,817.041443 2376.605713,800.946045
	C2353.937012,782.889160 2338.954102,759.774292 2332.876465,731.441040
	C2330.154053,718.749634 2333.564941,707.210266 2343.409668,697.767090
	C2359.390625,682.437866 2385.864746,678.542725 2404.400635,689.289917
	C2413.431152,694.526001 2419.937256,702.326599 2423.002930,711.954224
	C2430.379395,735.117920 2448.703125,744.953125 2469.634033,751.346680
	C2490.727783,757.789856 2512.535645,760.537781 2534.602295,759.437256
	C2558.315430,758.254578 2581.697021,754.917480 2602.291504,741.843628
	C2614.382324,734.168152 2624.080322,724.287598 2626.322510,709.176575
	C2628.462158,694.754517 2623.845947,685.141541 2611.181152,677.512451
	C2609.472656,676.483337 2607.718018,675.531128 2605.275146,674.259766
z"/>
<path fill="#FDFDFD" opacity="1.000000" stroke="none"
	d="
M1177.626099,651.630859
	C1187.409424,641.162170 1196.738525,631.240051 1206.332886,621.035828
	C1196.195312,610.042725 1186.317017,599.331665 1176.439697,588.619568
	C1157.071167,567.614136 1137.710083,546.601746 1118.332764,525.604492
	C1105.712280,511.928925 1092.985840,498.349762 1080.469482,484.579712
	C1074.312988,477.806641 1070.278809,469.702148 1068.485840,460.778320
	C1063.500122,435.964386 1082.432129,413.083740 1108.512695,412.093140
	C1125.484131,411.448486 1139.825073,417.886139 1151.401123,429.751404
	C1170.220825,449.041229 1188.501709,468.858490 1206.931030,488.527191
	C1222.843750,505.510132 1238.648804,522.593933 1254.496216,539.638000
	C1258.310669,543.740479 1262.104736,547.862000 1266.518921,552.635132
	C1272.767944,546.044312 1278.697021,539.911926 1284.493408,533.656616
	C1309.104126,507.097504 1333.639038,480.467957 1358.282227,453.939056
	C1366.208130,445.406586 1374.136475,436.850830 1382.499268,428.755707
	C1395.043457,416.613098 1410.098999,409.735291 1427.712891,412.500641
	C1459.315063,417.462189 1474.468018,447.680603 1455.877686,476.246674
	C1449.595947,485.899078 1441.215820,494.263885 1433.312744,502.769257
	C1403.895020,534.429077 1374.261475,565.888306 1344.745728,597.457214
	C1338.171509,604.488708 1331.747437,611.660461 1324.729980,619.341492
	C1333.122559,628.588501 1341.270508,637.675598 1349.536987,646.653687
	C1373.397217,672.567871 1397.290771,698.451660 1421.201660,724.319153
	C1430.452393,734.326904 1440.043823,744.032471 1449.015503,754.282410
	C1460.200684,767.061157 1466.273560,781.475159 1462.389526,799.053162
	C1456.599487,825.256714 1427.183594,840.291321 1402.425903,828.277161
	C1394.240967,824.305298 1386.368896,818.547363 1380.112061,811.940918
	C1352.464233,782.748352 1325.435913,752.968201 1298.229248,723.358765
	C1288.567383,712.843506 1279.052002,702.193604 1269.424316,691.646790
	C1268.117676,690.215454 1266.544800,689.027161 1264.802490,687.463623
	C1253.857788,699.106628 1243.115723,710.433716 1232.485962,721.865295
	C1216.632202,738.914917 1200.836304,756.018433 1185.057007,773.137024
	C1174.470703,784.621826 1164.313599,796.530518 1153.278687,807.563721
	C1146.289307,814.552002 1138.472412,820.926697 1130.255493,826.423706
	C1117.388916,835.031189 1090.954468,834.982849 1077.181152,821.611267
	C1066.190430,810.941284 1059.938843,793.748901 1067.871704,777.071411
	C1071.659668,769.107849 1076.650391,761.338440 1082.581421,754.835754
	C1113.270630,721.189514 1144.441772,687.982971 1175.429810,654.609070
	C1176.102783,653.884155 1176.595337,652.991760 1177.626099,651.630859
z"/>
<path fill="#FDAB1C" opacity="1.000000" stroke="none"
	d="
M3414.332031,252.466049
	C3414.113525,290.725525 3414.054932,328.033905 3413.635010,365.338226
	C3413.147949,408.593689 3412.428223,451.847137 3411.644531,495.098480
	C3411.186523,520.359436 3400.669922,533.996826 3373.983643,540.245361
	C3357.792969,544.036316 3342.282715,542.443115 3327.630127,534.362244
	C3314.945801,527.366943 3307.852295,517.022583 3308.297363,502.055023
	C3309.058350,476.463928 3309.587158,450.865845 3310.357178,425.275055
	C3310.886719,407.679871 3311.600830,390.089569 3312.341553,372.501678
	C3312.830078,360.896393 3313.541260,349.300629 3314.087158,337.697510
	C3314.224365,334.782379 3314.107910,331.855316 3314.107910,328.204071
	C3310.578369,328.204071 3307.676514,328.172577 3304.775635,328.208771
	C3251.858154,328.868896 3198.929932,329.081055 3146.027344,330.366882
	C3111.740723,331.200256 3096.341064,306.286438 3095.648438,280.746826
	C3095.258301,266.360474 3098.312744,253.100082 3106.994873,241.275497
	C3114.431396,231.148041 3124.320801,225.735077 3136.704834,225.625351
	C3154.014160,225.471954 3171.328857,225.941742 3188.641357,226.139328
	C3191.639893,226.173553 3194.638672,226.197098 3197.637451,226.197220
	C3263.951660,226.199738 3330.265625,226.165253 3396.579834,226.254257
	C3402.505127,226.262222 3408.429443,227.066559 3415.813232,227.608017
	C3415.294434,235.981171 3414.813232,243.747162 3414.332031,252.466049
z"/>
<path fill="#FDAB1C" opacity="1.000000" stroke="none"
	d="
M3579.655518,80.289429
	C3579.006104,126.470436 3578.360352,171.726440 3577.670166,216.981750
	C3577.030762,258.905792 3576.473633,300.831940 3575.546387,342.749786
	C3575.394775,349.609985 3574.294189,356.672791 3572.265137,363.218292
	C3568.768066,374.502808 3559.823730,381.358765 3549.383545,385.437561
	C3531.310791,392.498291 3512.869873,392.601166 3495.047607,384.381897
	C3480.228516,377.547791 3471.656494,366.335236 3472.265137,349.103821
	C3473.156494,323.851257 3473.587646,298.582794 3474.354736,273.325378
	C3474.889160,255.726852 3475.591797,238.132614 3476.345947,220.541901
	C3476.857422,208.607803 3477.633545,196.685196 3478.186523,184.752594
	C3478.304688,182.200043 3477.971680,179.626587 3477.806885,176.251129
	C3465.642578,176.251129 3454.052734,176.093460 3442.469971,176.304291
	C3434.191406,176.455002 3425.924072,177.395020 3417.647217,177.473557
	C3381.338867,177.818161 3345.011475,177.377975 3308.725342,178.420120
	C3285.561279,179.085388 3265.731445,165.058319 3260.933105,139.381500
	C3257.943604,123.382706 3260.014404,108.224281 3268.000244,94.068535
	C3275.461670,80.841675 3286.703369,74.078522 3302.249268,74.131569
	C3354.571045,74.310081 3406.894531,74.034225 3459.216064,74.253860
	C3496.824707,74.411720 3534.431885,75.051315 3572.037842,75.587090
	C3574.966553,75.628807 3579.183838,73.970734 3579.655518,80.289429
z"/>
<path fill="#FDAB1C" opacity="1.000000" stroke="none"
	d="
M1988.342041,819.645752
	C1979.674438,811.649902 1977.064331,801.865112 1976.343018,791.320557
	C1976.206909,789.331360 1976.321777,787.324951 1976.321777,785.326477
	C1976.321777,676.742920 1976.884277,568.154663 1975.976196,459.578705
	C1975.706543,427.324554 2003.563232,409.079071 2030.857666,412.527802
	C2056.330811,415.746460 2069.853516,431.870758 2070.451416,453.685699
	C2070.464600,454.167816 2071.035889,454.634644 2071.483643,455.317108
	C2078.715332,448.613159 2085.434326,441.308624 2093.202881,435.379364
	C2119.085693,415.624481 2148.507080,408.250336 2180.503174,413.876038
	C2202.998535,417.831238 2212.598877,430.232666 2213.331055,451.455261
	C2214.016846,471.350098 2205.945557,486.679230 2182.769531,493.798065
	C2175.946533,495.893799 2168.365723,495.782715 2161.105469,496.139984
	C2145.994385,496.883484 2131.474609,499.612244 2118.143311,507.185577
	C2101.479736,516.651978 2090.911865,531.202148 2083.766113,548.530273
	C2075.957031,567.467590 2071.968506,587.292603 2071.749023,607.713501
	C2071.105225,667.613770 2070.822266,727.517883 2070.261963,787.419189
	C2070.212891,792.667847 2069.866943,798.106079 2068.443604,803.110596
	C2065.180664,814.582092 2057.586182,822.360168 2046.857178,827.853394
	C2032.943359,834.977112 2001.279419,834.419495 1988.342041,819.645752
z"/>
<path fill="#FCAA1C" opacity="1.000000" stroke="none"
	d="
M2216.316650,509.999939
	C2216.316650,491.005890 2216.504639,473.009277 2216.259521,455.018555
	C2216.044678,439.230194 2222.512451,427.365631 2236.183838,419.639740
	C2254.809570,409.113861 2273.810547,409.481079 2292.248535,419.668274
	C2305.981201,427.255646 2311.593750,440.108185 2311.661621,455.468842
	C2311.749756,475.461823 2311.683594,495.455536 2311.683594,515.448914
	C2311.683594,605.752380 2311.277344,696.058594 2311.900391,786.357727
	C2312.123047,818.621094 2288.657959,832.473511 2265.721191,832.293152
	C2256.268066,832.218811 2247.147217,831.384949 2238.640137,826.912415
	C2224.128662,819.282837 2216.301025,807.567871 2216.306641,790.907288
	C2216.329834,719.930786 2216.316406,648.954224 2216.316406,577.977722
	C2216.316406,555.651794 2216.316650,533.325867 2216.316650,509.999939
z"/>
<path fill="#F3F3F3" opacity="1.000000" stroke="none"
	d="
M1293.443604,986.514526
	C1299.070679,993.864197 1304.188599,1000.711121 1309.552734,1007.887390
	C1310.714233,1005.626343 1312.123047,1002.866028 1313.547363,1000.113708
	C1321.578491,984.593811 1335.128784,976.840881 1351.718506,974.586975
	C1370.655518,972.014221 1388.088989,975.472534 1402.103271,990.078552
	C1411.120239,999.476257 1415.734741,1010.968933 1416.027588,1023.335999
	C1416.767456,1054.587524 1416.272827,1085.868286 1416.272827,1117.634888
	C1412.291992,1117.634888 1408.807739,1117.634888 1404.712158,1117.634888
	C1404.561768,1114.579224 1404.298584,1111.671753 1404.294556,1108.764038
	C1404.261353,1084.431152 1404.601562,1060.091431 1404.092896,1035.769165
	C1403.922485,1027.616333 1402.780640,1019.095215 1400.057251,1011.465454
	C1394.421509,995.677185 1382.376831,987.009338 1365.613525,985.408691
	C1330.085327,982.016357 1313.218018,1007.786255 1312.514893,1036.057861
	C1311.926758,1059.709473 1312.393921,1083.387207 1312.393921,1107.053467
	C1312.393921,1110.337769 1312.393921,1113.622192 1312.393921,1117.511353
	C1307.955566,1117.511353 1304.201904,1117.511353 1299.606079,1117.511353
	C1299.606079,1114.075195 1299.606079,1110.823364 1299.606079,1107.571655
	C1299.606079,1083.238770 1299.703735,1058.905273 1299.554932,1034.573364
	C1299.500000,1025.593506 1298.248291,1016.768799 1294.219971,1008.521057
	C1286.984985,993.707886 1275.151123,986.413208 1258.741089,985.273438
	C1225.450806,982.961304 1208.546875,1007.642883 1207.852295,1035.070679
	C1207.244995,1059.054810 1207.724976,1083.066650 1207.724487,1107.066162
	C1207.724365,1110.349609 1207.724365,1113.633057 1207.724365,1117.520752
	C1203.323364,1117.520752 1199.483032,1117.520752 1194.943848,1117.520752
	C1194.943848,1071.302368 1194.943848,1024.845459 1194.943848,977.798828
	C1198.733276,977.798828 1202.590210,977.798828 1207.427246,977.798828
	C1207.427246,984.927307 1207.427246,992.034729 1207.427246,999.142151
	C1218.318604,984.923096 1231.505127,975.646057 1248.966187,974.183838
	C1264.848633,972.853760 1280.245239,974.779602 1293.443604,986.514526
z"/>
<path fill="#FCAA1C" opacity="1.000000" stroke="none"
	d="
M2249.774902,390.871552
	C2225.549805,384.571014 2215.704834,371.955200 2215.663818,347.825653
	C2215.659180,345.165680 2215.665771,342.505707 2215.663086,339.845734
	C2215.640381,317.387726 2228.819092,305.901917 2246.174561,300.730408
	C2261.610840,296.130707 2276.835938,297.356384 2291.465820,305.217590
	C2302.947266,311.386993 2309.496582,320.810822 2311.434814,333.196198
	C2312.550781,340.326355 2312.309326,347.781616 2311.804932,355.029724
	C2310.669922,371.332520 2301.224365,381.831207 2286.730225,387.990326
	C2275.117432,392.925171 2262.909424,393.405792 2249.774902,390.871552
z"/>
<path fill="#F2F3F3" opacity="1.000000" stroke="none"
	d="
M2072.103027,1090.051270
	C2071.050049,1089.791260 2069.769775,1090.085083 2069.259277,1090.875732
	C2055.557617,1112.094360 2035.933960,1120.996460 2010.951172,1120.258057
	C1986.311157,1119.529663 1966.647217,1109.652100 1955.319946,1087.931885
	C1940.142578,1058.828979 1940.342529,1028.970337 1959.100952,1001.195740
	C1970.522949,984.283569 1987.682983,975.984436 2008.254395,975.195496
	C2022.755127,974.639343 2036.759766,975.923279 2049.317627,984.346619
	C2058.028809,990.189819 2065.101074,997.454529 2071.144531,1007.539246
	C2073.252197,998.008850 2072.011230,989.302734 2072.221436,980.716736
	C2072.441650,971.735107 2072.270752,962.743774 2072.270752,953.756714
	C2072.270752,944.777405 2072.270752,935.798035 2072.270752,926.012878
	C2076.615479,926.012878 2080.681152,926.012878 2085.252441,926.012878
	C2085.252441,989.844482 2085.252441,1053.557739 2085.252441,1117.706055
	C2081.015381,1117.706055 2077.163574,1117.706055 2072.234619,1117.706055
	C2072.234619,1108.624390 2072.234619,1099.730469 2072.103027,1090.051270
M1994.985962,989.322205
	C1974.286255,996.775879 1963.285034,1011.894226 1959.518433,1033.202637
	C1957.575317,1044.195557 1958.050171,1054.993164 1960.208984,1065.757690
	C1964.703125,1088.165161 1981.998413,1103.720581 2004.847534,1108.364014
	C2023.087524,1112.070679 2051.648682,1103.240356 2063.314941,1082.894287
	C2074.491943,1063.401001 2075.302246,1043.099243 2068.062256,1022.541626
	C2061.549805,1004.049927 2047.952759,992.505554 2028.869263,987.656921
	C2017.981079,984.890503 2007.168823,985.768982 1994.985962,989.322205
z"/>
<path fill="#F3F4F4" opacity="1.000000" stroke="none"
	d="
M509.063171,975.128906
	C531.831787,937.753967 576.268494,926.839355 613.273560,938.308594
	C648.691528,949.286072 668.874817,981.682739 672.516724,1012.515442
	C675.079834,1034.214966 672.572144,1054.902832 662.398193,1074.187622
	C646.602112,1104.128906 621.343994,1119.148315 587.505981,1120.193481
	C569.802368,1120.740112 553.099548,1117.481934 537.968811,1108.142090
	C512.377197,1092.345093 499.551605,1068.597900 496.303375,1039.245605
	C493.822845,1016.830322 497.491882,995.532104 509.063171,975.128906
M558.848083,949.375061
	C540.233948,955.664978 526.867432,968.092102 518.078735,985.335938
	C508.920868,1003.304138 506.636627,1022.473877 509.733673,1042.353394
	C513.394348,1065.850708 523.986267,1085.024170 544.575684,1097.800049
	C580.007202,1119.785400 629.438965,1109.250732 649.764648,1070.988647
	C662.934570,1046.196899 663.807922,1019.805420 654.439697,993.747253
	C645.259705,968.212830 626.773682,951.851624 599.764343,946.518860
	C586.582886,943.916260 573.283508,944.804321 558.848083,949.375061
z"/>
<path fill="#F4F7F7" opacity="1.000000" stroke="none"
	d="
M1079.627075,1116.612305
	C1048.479492,1106.256836 1034.771729,1075.116211 1035.690063,1053.237427
	C1036.105713,1043.335938 1035.903809,1033.114624 1038.341797,1023.645935
	C1046.319458,992.662170 1069.806152,975.646912 1101.773804,975.087891
	C1122.125732,974.731995 1139.955444,979.860046 1153.941040,995.117554
	C1168.663574,1011.178955 1171.910034,1030.468994 1169.391113,1052.155762
	C1128.889526,1052.155762 1089.061768,1052.155762 1049.337891,1052.155762
	C1046.527100,1076.751221 1063.919189,1101.345337 1087.770020,1107.242310
	C1111.914062,1113.211914 1145.683838,1107.723145 1156.440430,1071.808228
	C1160.066528,1071.808228 1163.880859,1071.808228 1168.511841,1071.808228
	C1167.812500,1081.805908 1163.651489,1089.993042 1157.818848,1097.227783
	C1146.592896,1111.152222 1131.551758,1118.491699 1113.933105,1119.897705
	C1102.688965,1120.794922 1091.289429,1120.877808 1079.627075,1116.612305
M1122.996826,1042.060059
	C1134.494873,1042.060059 1145.992920,1042.060059 1157.365601,1042.060059
	C1158.993408,1009.453247 1135.796387,982.921326 1097.003784,986.063965
	C1068.705811,988.356323 1045.865601,1015.791077 1049.451782,1042.060059
	C1073.231689,1042.060059 1097.115112,1042.060059 1122.996826,1042.060059
z"/>
<path fill="#F4F2F2" opacity="1.000000" stroke="none"
	d="
M169.200745,939.219849
	C174.243973,938.967651 174.547791,942.761597 175.478043,945.236206
	C189.122223,981.533020 202.574448,1017.901855 216.110550,1054.239380
	C223.861847,1075.047607 231.682053,1095.830078 239.772491,1117.428345
	C235.218506,1117.428345 231.160431,1117.428345 225.915604,1117.428345
	C220.474670,1102.968018 214.787781,1087.854004 208.841675,1072.051025
	C180.638092,1072.051025 152.167694,1072.051025 123.256302,1072.051025
	C117.592087,1087.196289 111.929855,1102.336060 106.170586,1117.735474
	C101.674767,1117.735474 97.452263,1117.735474 92.208092,1117.735474
	C114.622292,1058.101318 136.847977,998.968750 159.308502,939.211365
	C162.536896,939.211365 165.481857,939.211365 169.200745,939.219849
M189.617111,1019.558838
	C182.077164,999.638428 174.537201,979.718018 166.997253,959.797607
	C152.905228,993.476562 139.509598,1026.654419 127.750771,1060.710083
	C153.948639,1060.710083 178.756897,1060.710083 204.701218,1060.710083
	C199.568817,1046.937866 194.751846,1034.012207 189.617111,1019.558838
z"/>
<path fill="#F3F4F4" opacity="1.000000" stroke="none"
	d="
M907.073242,1000.329773
	C903.814087,989.643555 902.624023,979.661011 905.322327,969.303955
	C910.645142,948.873901 929.234741,936.278076 951.375488,934.309265
	C960.502380,933.497742 970.038391,934.459961 979.085510,936.194580
	C995.487671,939.339294 1006.820984,949.643005 1014.151917,964.462341
	C1014.876404,965.926941 1015.430298,967.513123 1015.803406,969.103760
	C1016.173645,970.681824 1016.215332,972.337036 1016.483398,974.677124
	C1012.275208,974.677124 1008.482544,974.677124 1003.926697,974.677124
	C1000.354919,965.419739 994.813538,957.080933 985.501953,951.484741
	C969.007385,941.571289 943.082825,942.974487 928.265076,955.021423
	C910.984558,969.070862 911.878052,999.945007 934.691650,1010.962158
	C944.744324,1015.816772 955.879578,1018.437622 966.540283,1022.022339
	C974.393616,1024.662964 982.448547,1026.793091 990.107178,1029.905029
	C1006.875610,1036.718262 1016.756287,1048.678589 1017.912048,1067.476562
	C1019.084839,1086.551636 1011.756287,1101.276245 996.037292,1111.386597
	C974.273193,1125.384888 938.595520,1123.039062 918.919556,1106.758301
	C908.868469,1098.441528 902.447754,1087.949951 901.531616,1073.823486
	C905.933655,1073.823486 909.736328,1073.823486 913.223083,1073.823486
	C916.580933,1080.333496 919.043213,1087.359497 923.335022,1092.991211
	C934.648315,1107.836426 951.105530,1110.252808 968.219727,1108.732666
	C980.825623,1107.613159 992.013062,1102.574463 999.405884,1091.555908
	C1010.550842,1074.944702 1007.059570,1051.929077 987.339722,1042.293213
	C979.942932,1038.678833 971.883240,1036.371582 964.032288,1033.748535
	C953.953369,1030.381226 943.666748,1027.610718 933.677551,1024.006836
	C922.053528,1019.812988 912.510925,1012.891907 907.073242,1000.329773
z"/>
<path fill="#F3F4F4" opacity="1.000000" stroke="none"
	d="
M1748.478516,987.447510
	C1768.821045,1003.153564 1776.157471,1023.998779 1775.977295,1048.154785
	C1775.894897,1059.202393 1774.207764,1069.904541 1769.705566,1080.180664
	C1761.622314,1098.630371 1748.242676,1111.043701 1728.967285,1116.848145
	C1710.133301,1122.519775 1691.669189,1121.747070 1673.581299,1113.412842
	C1660.624634,1107.442993 1650.618286,1098.154297 1644.784912,1085.500854
	C1631.867065,1057.479736 1631.951416,1029.655273 1649.004883,1002.940125
	C1658.759033,987.659851 1673.371582,979.225708 1690.596191,976.337830
	C1710.686890,972.969299 1730.454834,974.617126 1748.478516,987.447510
M1742.343018,998.574158
	C1738.418701,996.144043 1734.709961,993.233521 1730.535522,991.361084
	C1701.419189,978.301270 1664.829102,989.433960 1652.793213,1022.837036
	C1648.107422,1035.841064 1648.322388,1049.534546 1650.545288,1062.865356
	C1654.021240,1083.711670 1665.696655,1098.974243 1685.985352,1105.803711
	C1707.612549,1113.083740 1727.927246,1109.705688 1745.177246,1093.997437
	C1756.503418,1083.683838 1761.374634,1070.388550 1762.722900,1055.159790
	C1764.640259,1033.505859 1760.055786,1014.547180 1742.343018,998.574158
z"/>
<path fill="#F4F6F6" opacity="1.000000" stroke="none"
	d="
M2632.382324,1055.644897
	C2629.493896,1096.979004 2597.191650,1121.029663 2563.036865,1120.307495
	C2534.497314,1119.704102 2512.838623,1108.602173 2500.249268,1082.626465
	C2488.190430,1057.745605 2489.808105,1014.586121 2514.796875,992.267761
	C2523.399170,984.584595 2533.311768,979.377991 2544.533691,977.028870
	C2561.476318,973.482422 2578.418457,973.692810 2594.316162,981.123047
	C2618.550049,992.449219 2630.249023,1012.578735 2632.320801,1038.718018
	C2632.740234,1044.013062 2632.382568,1049.369629 2632.382324,1055.644897
M2614.720947,1018.832947
	C2605.456787,998.381409 2588.962646,987.865540 2567.195557,986.298950
	C2544.547363,984.669006 2526.266846,993.460449 2514.242920,1013.203857
	C2505.938232,1026.839844 2504.911621,1042.186157 2506.513916,1057.522583
	C2509.091064,1082.195923 2524.087402,1101.314697 2547.277588,1107.264404
	C2579.513428,1115.534912 2612.032715,1097.386230 2618.466064,1064.237183
	C2621.395752,1049.141479 2620.359863,1034.603516 2614.720947,1018.832947
z"/>
<path fill="#F3F3F3" opacity="1.000000" stroke="none"
	d="
M1800.276001,1022.000122
	C1800.276001,1006.755615 1800.276001,992.511169 1800.276001,977.743896
	C1804.887085,977.743896 1808.742432,977.743896 1813.579346,977.743896
	C1813.579346,985.027771 1813.579346,992.115051 1813.579346,1000.710327
	C1818.204102,995.594727 1821.527466,991.702942 1825.076294,988.028931
	C1845.354004,967.036255 1895.316650,968.187134 1913.051270,997.737732
	C1917.959473,1005.916016 1921.304688,1014.812195 1921.478027,1024.015137
	C1922.060181,1054.921997 1921.699097,1085.846680 1921.699097,1117.450195
	C1918.081421,1117.450195 1914.328491,1117.450195 1909.606445,1117.450195
	C1909.606445,1114.554077 1909.606323,1111.654785 1909.606323,1108.755493
	C1909.606323,1084.107056 1909.749390,1059.457520 1909.542725,1034.810791
	C1909.447510,1023.446838 1907.551025,1012.373108 1900.559937,1002.900757
	C1898.609375,1000.257690 1896.397095,997.678833 1893.859741,995.618774
	C1878.355347,983.030701 1860.711548,982.407410 1842.999756,988.717346
	C1825.332764,995.011475 1817.177490,1009.599243 1814.468750,1027.476807
	C1813.824219,1031.730225 1813.767700,1036.100220 1813.754883,1040.417480
	C1813.688477,1062.734009 1813.723999,1085.051025 1813.723877,1107.367798
	C1813.723877,1110.631592 1813.723877,1113.895386 1813.723877,1117.640381
	C1809.111816,1117.640381 1805.260132,1117.640381 1800.276001,1117.640381
	C1800.276001,1086.080078 1800.276001,1054.540039 1800.276001,1022.000122
z"/>
<path fill="#F4F4F4" opacity="1.000000" stroke="none"
	d="
M2224.278564,1039.987915
	C2224.278564,1018.745605 2224.278564,998.501038 2224.278564,977.741089
	C2228.905762,977.741089 2232.760742,977.741089 2237.171387,977.741089
	C2237.171387,1024.454834 2237.171387,1070.880371 2237.171387,1117.720825
	C2232.976807,1117.720825 2229.125977,1117.720825 2224.400146,1117.720825
	C2224.400146,1109.995605 2224.400146,1102.523438 2224.400146,1092.589844
	C2221.507080,1096.528809 2220.142822,1098.569092 2218.597168,1100.461426
	C2205.793945,1116.136841 2189.072754,1121.506592 2169.235107,1120.363770
	C2154.985596,1119.542847 2142.695312,1115.256958 2132.215576,1105.495361
	C2121.561035,1095.571045 2117.135498,1082.811523 2116.446533,1068.944092
	C2115.538330,1050.670654 2115.780029,1032.338013 2115.628418,1014.029907
	C2115.529541,1002.080078 2115.609619,990.128662 2115.609619,977.703491
	C2119.822021,977.703491 2123.365967,977.703491 2127.733398,977.703491
	C2127.947021,980.112671 2128.356445,982.613403 2128.361328,985.114929
	C2128.409180,1010.104980 2128.390625,1035.095215 2128.390869,1060.085449
	C2128.390869,1062.084717 2128.191406,1064.107788 2128.425049,1066.079468
	C2130.864502,1086.653931 2140.161621,1101.014038 2158.034424,1107.133789
	C2176.325684,1113.396851 2200.365479,1108.527100 2212.728516,1093.270142
	C2220.781250,1083.332520 2223.677246,1071.474976 2224.229004,1058.976807
	C2224.493164,1052.990723 2224.277344,1046.983276 2224.278564,1039.987915
z"/>
<path fill="#F3F4F4" opacity="1.000000" stroke="none"
	d="
M1552.116333,1109.214844
	C1568.589722,1109.172974 1583.055542,1105.469360 1593.524780,1093.431274
	C1599.022095,1087.110474 1602.420166,1078.963989 1607.402344,1070.570312
	C1609.702148,1070.570312 1613.550659,1070.570312 1618.080444,1070.570312
	C1618.214844,1077.052246 1615.651001,1082.765747 1612.765503,1088.113770
	C1602.111572,1107.858765 1584.903198,1118.089111 1562.976440,1119.915283
	C1552.135620,1120.818237 1541.166870,1120.766479 1530.423340,1117.090576
	C1504.468262,1108.209839 1490.643433,1089.544556 1486.232544,1063.304688
	C1483.338135,1046.086304 1484.411377,1029.138062 1491.622803,1012.843445
	C1501.395142,990.761780 1518.681030,978.615845 1542.112549,975.748108
	C1560.523926,973.494873 1578.685791,974.872986 1594.721436,986.094543
	C1607.646729,995.139465 1615.296143,1007.431335 1618.483398,1023.511963
	C1613.942261,1023.511963 1609.844116,1023.511963 1605.123047,1023.511963
	C1601.315430,1005.396606 1589.783081,993.303101 1572.376709,988.524658
	C1536.209229,978.595642 1503.882935,995.916382 1498.456055,1036.212524
	C1496.798340,1048.519897 1497.422119,1060.855591 1501.672729,1072.579102
	C1510.015869,1095.589844 1526.650269,1107.852173 1552.116333,1109.214844
z"/>
<path fill="#F4F6F6" opacity="1.000000" stroke="none"
	d="
M2366.923096,1097.144775
	C2375.543457,1089.696533 2380.021729,1080.612671 2382.460205,1070.341431
	C2386.864990,1070.341431 2390.804199,1070.341431 2395.403809,1070.341431
	C2392.017090,1090.470825 2381.379395,1105.584717 2363.562500,1113.327881
	C2337.402100,1124.697144 2311.161621,1124.047729 2287.029785,1106.464355
	C2276.986328,1099.146484 2270.474121,1088.989380 2266.586182,1077.625610
	C2259.982178,1058.322021 2259.456543,1038.548950 2266.044678,1018.998901
	C2273.381104,997.227539 2288.011475,982.882263 2310.538330,977.455505
	C2326.996826,973.490662 2343.558594,973.394592 2359.509521,979.787537
	C2379.204346,987.681152 2391.315674,1002.107971 2395.138428,1023.676147
	C2391.176025,1023.676147 2387.292725,1023.676147 2382.753174,1023.676147
	C2382.238770,1022.649963 2381.310791,1021.314209 2380.864990,1019.833313
	C2374.796387,999.675598 2360.107666,989.419128 2340.363770,986.540955
	C2324.182861,984.182251 2308.229248,986.293335 2295.392578,997.862000
	C2290.312744,1002.440002 2285.170654,1007.753845 2282.264404,1013.794678
	C2271.614746,1035.931152 2271.237549,1058.718140 2282.091064,1080.899536
	C2292.687256,1102.554810 2315.580322,1111.786255 2338.953125,1108.714600
	C2349.086182,1107.383057 2358.162842,1103.623901 2366.923096,1097.144775
z"/>
<path fill="#F2F4F4" opacity="1.000000" stroke="none"
	d="
M2817.628174,1092.862061
	C2822.903809,1078.874512 2820.430176,1070.223999 2808.476562,1063.477661
	C2802.508057,1060.109131 2795.644287,1058.255615 2789.078125,1056.034180
	C2778.692627,1052.520630 2768.071045,1049.662598 2757.814941,1045.819214
	C2743.950928,1040.623779 2735.250000,1030.843872 2734.323242,1015.520447
	C2733.352295,999.466370 2740.699219,987.584412 2754.909180,981.066711
	C2775.843994,971.464539 2796.805664,971.684265 2816.271973,985.365234
	C2826.924072,992.851440 2831.238770,1002.288391 2831.629150,1016.656250
	C2828.184082,1016.656250 2824.720947,1016.656250 2820.374023,1016.656250
	C2819.670898,1014.492981 2818.788818,1011.740967 2817.882568,1008.996887
	C2814.918701,1000.020203 2809.173828,993.774719 2800.522461,989.669861
	C2787.156494,983.328369 2764.329834,984.878723 2753.980469,996.138062
	C2744.504395,1006.447144 2744.593506,1021.913391 2755.814209,1030.297485
	C2761.512695,1034.555420 2768.538330,1037.321777 2775.320557,1039.778931
	C2785.900391,1043.611694 2796.898926,1046.280151 2807.511475,1050.031982
	C2825.210449,1056.289185 2832.165771,1064.840576 2832.392578,1079.519165
	C2832.671143,1097.526611 2824.707031,1110.667847 2807.790771,1116.378662
	C2785.541016,1123.890259 2763.892822,1122.006470 2744.265137,1107.947876
	C2735.275635,1101.508667 2731.972168,1091.897095 2730.146484,1080.735596
	C2734.613770,1080.735596 2738.707764,1080.735596 2743.172607,1080.735596
	C2745.924805,1096.995483 2756.897461,1105.093018 2772.084473,1107.918335
	C2789.501709,1111.158691 2806.030762,1110.302002 2817.628174,1092.862061
z"/>
<path fill="#F2F2F2" opacity="1.000000" stroke="none"
	d="
M734.270874,1075.999634
	C734.270874,1032.426270 734.270874,989.852844 734.270874,946.344604
	C717.314148,946.344604 700.826050,946.344604 684.050964,946.344604
	C684.050964,942.244995 684.050964,939.085449 684.050964,935.662415
	C722.687927,935.662415 760.879028,935.662415 799.396973,935.662415
	C799.396973,939.057922 799.396973,941.996460 799.396973,945.820190
	C782.613586,945.820190 765.770874,945.820190 748.046570,945.820190
	C748.046570,1003.418213 748.046570,1060.152710 748.046570,1117.510742
	C743.380188,1117.510742 739.574768,1117.510742 734.270874,1117.510742
	C734.270874,1104.053223 734.270874,1090.526367 734.270874,1075.999634
z"/>
<path fill="#FAF7F7" opacity="1.000000" stroke="none"
	d="
M2425.632324,1002.158081
	C2425.606689,997.517090 2425.614014,993.855957 2425.521973,990.197327
	C2425.506836,989.593506 2425.056885,989.000671 2424.407471,987.441528
	C2418.317871,987.441528 2411.806396,987.441528 2404.815918,987.441528
	C2404.815918,983.653870 2404.815918,980.832825 2404.815918,977.126953
	C2411.668457,977.126953 2418.220459,977.126953 2425.421875,977.126953
	C2425.421875,965.020447 2425.421875,953.773804 2425.421875,941.893066
	C2429.852295,941.893066 2433.625977,941.893066 2438.448486,941.893066
	C2438.448486,953.489990 2438.448486,964.966248 2438.448486,977.084473
	C2452.692139,977.084473 2465.942383,977.084473 2479.769531,977.084473
	C2479.769531,980.566162 2479.769531,983.376343 2479.769531,987.243652
	C2466.240234,987.243652 2452.777344,987.243652 2438.813232,987.243652
	C2438.634033,991.162964 2438.388184,994.080444 2438.385254,996.998230
	C2438.355469,1024.288574 2438.278320,1051.579346 2438.395752,1078.869263
	C2438.492188,1101.251343 2445.266113,1107.013672 2466.984863,1107.240967
	C2470.954834,1107.282471 2474.925537,1107.246826 2479.694580,1107.246826
	C2479.986328,1110.761108 2480.246826,1113.896118 2480.569580,1117.783447
	C2470.898193,1117.783447 2461.608154,1118.486816 2452.465820,1117.624878
	C2437.311768,1116.195923 2428.325439,1106.603027 2426.368408,1090.941162
	C2425.793945,1086.342651 2425.675537,1081.664673 2425.663086,1077.022217
	C2425.597412,1052.394531 2425.632324,1027.766602 2425.632324,1002.158081
z"/>
<path fill="#FAFAFA" opacity="1.000000" stroke="none"
	d="
M2673.163086,1015.858154
	C2671.957520,1025.429565 2670.582520,1034.297729 2670.467529,1043.182129
	C2670.149658,1067.761353 2670.357422,1092.347290 2670.357422,1117.517578
	C2666.152588,1117.517578 2662.380859,1117.517578 2658.113770,1117.517578
	C2658.113770,1070.997925 2658.113770,1024.584229 2658.113770,977.714600
	C2661.924561,977.714600 2665.472412,977.714600 2669.893555,977.714600
	C2669.893555,984.182312 2669.893555,990.632385 2669.893555,999.038574
	C2675.739258,993.221741 2679.739014,988.140137 2684.789307,984.527161
	C2689.812256,980.933960 2695.654785,978.013550 2701.571777,976.272522
	C2707.777344,974.446533 2714.498291,974.372253 2721.740723,973.435852
	C2721.740723,978.332275 2721.740723,982.146240 2721.740723,986.559204
	C2701.033203,987.929993 2681.491699,991.943726 2673.163086,1015.858154
z"/>
<path fill="#F4F4F4" opacity="1.000000" stroke="none"
	d="
M458.281799,993.999878
	C458.281799,974.107605 458.281799,955.215332 458.281799,935.776489
	C462.465668,935.776489 465.962585,935.776489 469.927704,935.776489
	C469.927704,996.413208 469.927704,1056.786743 469.927704,1117.646240
	C466.264221,1117.646240 462.789093,1117.646240 458.281799,1117.646240
	C458.281799,1076.623535 458.281799,1035.811768 458.281799,993.999878
z"/>
<path fill="#F4F4F4" opacity="1.000000" stroke="none"
	d="
M258.281799,968.005554
	C258.281799,956.766296 258.281799,946.525696 258.281799,935.761719
	C262.507263,935.761719 266.004730,935.761719 269.948181,935.761719
	C269.948181,996.445129 269.948181,1056.821899 269.948181,1117.665283
	C266.227417,1117.665283 262.753632,1117.665283 258.281799,1117.665283
	C258.281799,1067.930176 258.281799,1018.467224 258.281799,968.005554
z"/>
<path fill="#FFFFFF" opacity="1.000000" stroke="none"
	d="
M1447.667847,1016.000488
	C1447.667847,1002.755615 1447.667847,990.510742 1447.667847,977.791138
	C1451.927246,977.791138 1455.468506,977.791138 1459.673584,977.791138
	C1459.673584,1023.971130 1459.673584,1070.391602 1459.673584,1117.450439
	C1456.234375,1117.450439 1452.468262,1117.450439 1447.667847,1117.450439
	C1447.667847,1083.981445 1447.667847,1050.490967 1447.667847,1016.000488
z"/>
<path fill="#F0F0F0" opacity="1.000000" stroke="none"
	d="
M371.330994,1100.288086
	C373.079651,1103.667236 375.086304,1106.647461 375.071442,1109.617310
	C375.041809,1115.538086 369.228790,1119.970215 363.514618,1119.349243
	C358.143036,1118.765625 354.398071,1114.714722 354.269623,1109.348511
	C354.112274,1102.773682 357.957764,1098.177612 364.138489,1098.136963
	C366.313324,1098.122681 368.495789,1099.268433 371.330994,1100.288086
z"/>
<path fill="#EFF1F1" opacity="1.000000" stroke="none"
	d="
M805.833374,1103.784180
	C811.792114,1097.552246 815.741333,1096.546509 820.414246,1099.408569
	C824.502625,1101.912598 825.946899,1105.835205 825.347229,1110.284546
	C824.469360,1116.797974 818.597168,1120.649292 812.426575,1119.189209
	C806.195435,1117.714600 803.820923,1112.581543 805.833374,1103.784180
z"/>
<path fill="#F3F4F4" opacity="1.000000" stroke="none"
	d="
M1444.077393,939.232788
	C1443.162842,933.092041 1444.376343,928.527405 1449.656494,926.059814
	C1454.066895,923.998657 1459.138672,925.371887 1462.048706,929.260681
	C1464.891357,933.059143 1465.130615,937.204712 1462.782593,941.266113
	C1460.445435,945.308777 1455.032471,947.489014 1450.755493,945.600159
	C1448.269653,944.502319 1446.437622,941.924133 1444.077393,939.232788
z"/>
<path fill="#010101" opacity="1.000000" stroke="none"
	d="
M864.000000,594.088623
	C810.386841,594.088623 757.773682,594.088623 703.933228,594.088623
	C704.709595,590.021667 705.170776,586.596558 706.027771,583.273621
	C714.091675,552.005920 729.699219,525.639221 756.526672,506.812561
	C773.188782,495.119659 791.763489,488.866638 812.140747,487.163849
	C832.557861,485.457764 852.448181,487.240906 871.940491,493.411713
	C898.395142,501.786652 917.649719,518.741089 929.632324,543.564453
	C937.157776,559.154236 941.171509,575.855957 942.427307,594.088623
	C916.179932,594.088623 890.589966,594.088623 864.000000,594.088623
z"/>
<path fill="#010000" opacity="1.000000" stroke="none"
	d="
M3077.960449,550.386169
	C3083.290039,564.534729 3086.508057,578.361023 3087.559570,593.456665
	C3008.303467,593.456665 2929.258545,593.456665 2849.598389,593.456665
	C2851.957031,577.818665 2857.004150,563.415771 2864.288818,549.978210
	C2881.890625,517.508667 2908.385010,496.202911 2945.057861,489.117126
	C2974.467041,483.434875 3003.411377,486.114990 3030.657959,498.776764
	C3049.528564,507.546295 3063.782959,521.931274 3073.228027,540.733032
	C3074.721924,543.706543 3076.211914,546.682129 3077.960449,550.386169
z"/>
<path fill="#010101" opacity="1.000000" stroke="none"
	d="
M1636.550537,745.728149
	C1605.136719,728.554810 1588.627319,701.206970 1580.881836,668.278015
	C1573.489624,636.851807 1572.883179,605.080261 1581.978516,573.737793
	C1591.887817,539.591125 1611.285034,512.822327 1644.314819,497.663147
	C1673.316406,484.352753 1703.109253,485.104401 1732.728760,495.229462
	C1759.625366,504.423676 1781.545776,520.509827 1796.889648,544.923096
	C1799.279419,548.725281 1800.422363,552.486572 1800.408569,557.021423
	C1800.276245,600.353943 1800.233643,643.687622 1800.445923,687.019531
	C1800.473755,692.702942 1798.645020,697.329651 1795.905884,701.966736
	C1783.118530,723.613770 1763.492188,736.653870 1740.846313,745.956787
	C1718.549072,755.116333 1695.212280,757.577148 1671.456787,755.917786
	C1659.511108,755.083374 1647.909302,751.866150 1636.550537,745.728149
z"/>
<path fill="#030303" opacity="1.000000" stroke="none"
	d="
M1995.704712,988.945007
	C2007.168823,985.768982 2017.981079,984.890503 2028.869263,987.656921
	C2047.952759,992.505554 2061.549805,1004.049927 2068.062256,1022.541626
	C2075.302246,1043.099243 2074.491943,1063.401001 2063.314941,1082.894287
	C2051.648682,1103.240356 2023.087524,1112.070679 2004.847534,1108.364014
	C1981.998413,1103.720581 1964.703125,1088.165161 1960.208984,1065.757690
	C1958.050171,1054.993164 1957.575317,1044.195557 1959.518433,1033.202637
	C1963.285034,1011.894226 1974.286255,996.775879 1995.704712,988.945007
z"/>
<path fill="#020202" opacity="1.000000" stroke="none"
	d="
M559.569336,948.997314
	C573.283508,944.804321 586.582886,943.916260 599.764343,946.518860
	C626.773682,951.851624 645.259705,968.212830 654.439697,993.747253
	C663.807922,1019.805420 662.934570,1046.196899 649.764648,1070.988647
	C629.438965,1109.250732 580.007202,1119.785400 544.575684,1097.800049
	C523.986267,1085.024170 513.394348,1065.850708 509.733673,1042.353394
	C506.636627,1022.473877 508.920868,1003.304138 518.078735,985.335938
	C526.867432,968.092102 540.233948,955.664978 559.569336,948.997314
z"/>
<path fill="#030101" opacity="1.000000" stroke="none"
	d="
M1121.997559,1042.060059
	C1097.115112,1042.060059 1073.231689,1042.060059 1049.451782,1042.060059
	C1045.865601,1015.791077 1068.705811,988.356323 1097.003784,986.063965
	C1135.796387,982.921326 1158.993408,1009.453247 1157.365601,1042.060059
	C1145.992920,1042.060059 1134.494873,1042.060059 1121.997559,1042.060059
z"/>
<path fill="#060707" opacity="1.000000" stroke="none"
	d="
M189.776001,1020.322632
	C194.751846,1034.012207 199.568817,1046.937866 204.701218,1060.710083
	C178.756897,1060.710083 153.948639,1060.710083 127.750771,1060.710083
	C139.509598,1026.654419 152.905228,993.476562 166.997253,959.797607
	C174.537201,979.718018 182.077164,999.638428 189.776001,1020.322632
z"/>
<path fill="#020202" opacity="1.000000" stroke="none"
	d="
M1742.887207,999.055298
	C1760.055786,1014.547180 1764.640259,1033.505859 1762.722900,1055.159790
	C1761.374634,1070.388550 1756.503418,1083.683838 1745.177246,1093.997437
	C1727.927246,1109.705688 1707.612549,1113.083740 1685.985352,1105.803711
	C1665.696655,1098.974243 1654.021240,1083.711670 1650.545288,1062.865356
	C1648.322388,1049.534546 1648.107422,1035.841064 1652.793213,1022.837036
	C1664.829102,989.433960 1701.419189,978.301270 1730.535522,991.361084
	C1734.709961,993.233521 1738.418701,996.144043 1742.887207,999.055298
z"/>
<path fill="#030202" opacity="1.000000" stroke="none"
	d="
M2615.118164,1019.503723
	C2620.359863,1034.603516 2621.395752,1049.141479 2618.466064,1064.237183
	C2612.032715,1097.386230 2579.513428,1115.534912 2547.277588,1107.264404
	C2524.087402,1101.314697 2509.091064,1082.195923 2506.513916,1057.522583
	C2504.911621,1042.186157 2505.938232,1026.839844 2514.242920,1013.203857
	C2526.266846,993.460449 2544.547363,984.669006 2567.195557,986.298950
	C2588.962646,987.865540 2605.456787,998.381409 2615.118164,1019.503723
z"/>
</svg>
