<?xml version="1.0" encoding="UTF-8"?>
<svg version="1.1" xmlns="http://www.w3.org/2000/svg" width="425" height="144">
<path d="M0 0 C0.66507568 0.07379883 1.33015137 0.14759766 2.01538086 0.22363281 C6.76488008 0.85383099 10.52629384 2.22642148 14.8125 4.25 C14.24424347 9.79050113 12.18363483 14.28715966 9.8125 19.25 C6.9979239 18.73825889 4.4025489 18.11061662 1.6875 17.1875 C-3.23485906 15.99660668 -8.1513376 15.50419888 -13.1875 16.25 C-15.01173076 17.66003188 -15.01173076 17.66003188 -16.1875 19.25 C-11.91872389 21.82009001 -7.12707452 22.25078583 -2.29492188 23.01757812 C2.46275073 23.83227892 6.43858692 25.1974055 10.8125 27.25 C10.895 26.26 10.9775 25.27 11.0625 24.25 C12.33795592 15.49895519 17.37392722 9.77256396 24.25 4.5625 C31.91157443 -0.68222584 40.78728758 -1.33595248 49.8125 -0.1875 C57.68155911 1.33978525 64.11802603 4.77101931 69.25 11 C74.66673057 19.08673374 74.8125 26.42531551 74.8125 36.25 C61.2825 36.58 47.7525 36.91 33.8125 37.25 C38.96950501 42.64802432 38.96950501 42.64802432 45.5625 43.5 C49.93819106 43.4678258 52.87206057 42.06866435 56.8125 40.25 C60.8125 40.25 60.8125 40.25 63.390625 42.4375 C64.27234375 43.365625 65.1540625 44.29375 66.0625 45.25 C66.95453125 46.178125 67.8465625 47.10625 68.765625 48.0625 C69.77882813 49.1453125 69.77882813 49.1453125 70.8125 50.25 C68.4077157 53.49216454 66.49863617 55.80092161 62.8125 57.5 C62.1525 57.81453125 61.4925 58.1290625 60.8125 58.453125 C51.76711771 62.05714451 38.75376283 61.69613451 29.625 58.6875 C24.55567254 56.49343171 20.65461009 53.16917247 16.8125 49.25 C16.131875 49.9925 15.45125 50.735 14.75 51.5 C8.12693263 58.10435814 0.18368993 60.48806097 -8.98193359 60.578125 C-9.93664551 60.57296875 -10.89135742 60.5678125 -11.875 60.5625 C-13.34187256 60.56056641 -13.34187256 60.56056641 -14.83837891 60.55859375 C-21.62947052 60.46809111 -27.8284921 59.80577351 -34.1875 57.25 C-34.1875 57.91 -34.1875 58.57 -34.1875 59.25 C-41.4475 59.25 -48.7075 59.25 -56.1875 59.25 C-56.1875 46.05 -56.1875 32.85 -56.1875 19.25 C-64.36012999 20.45530186 -64.36012999 20.45530186 -69.1875 25.25 C-70.40257958 28.84510573 -70.39209338 32.43343403 -70.50390625 36.203125 C-70.52468735 36.86334656 -70.54546844 37.52356812 -70.56687927 38.20379639 C-70.63200147 40.30243015 -70.69108502 42.40118372 -70.75 44.5 C-70.79322079 45.92709547 -70.8368362 47.35417905 -70.88085938 48.78125 C-70.98838351 52.27071259 -71.08773285 55.76027257 -71.1875 59.25 C-78.1175 59.25 -85.0475 59.25 -92.1875 59.25 C-92.1875 39.78 -92.1875 20.31 -92.1875 0.25 C-85.5875 0.25 -78.9875 0.25 -72.1875 0.25 C-71.8575 1.9 -71.5275 3.55 -71.1875 5.25 C-69.7953125 4.2909375 -69.7953125 4.2909375 -68.375 3.3125 C-63.9017916 0.41807104 -60.9989593 0.12868118 -55.76953125 0.15234375 C-54.51591797 0.15556641 -53.26230469 0.15878906 -51.97070312 0.16210938 C-50.00520508 0.17467773 -50.00520508 0.17467773 -48 0.1875 C-46.66471519 0.19251683 -45.32942859 0.19707941 -43.99414062 0.20117188 C-40.72521527 0.21297305 -37.45638009 0.22943703 -34.1875 0.25 C-33.6925 4.21 -33.6925 4.21 -33.1875 8.25 C-32.69121094 7.84007812 -32.19492187 7.43015625 -31.68359375 7.0078125 C-27.29803587 3.52932447 -23.790542 1.3126459 -18.1875 0.25 C-17.49527344 0.11722656 -16.80304688 -0.01554687 -16.08984375 -0.15234375 C-10.65298515 -0.96015746 -5.43956415 -0.6342711 0 0 Z M33.8125 19.25 C33.1525 20.9 32.4925 22.55 31.8125 24.25 C39.0725 24.25 46.3325 24.25 53.8125 24.25 C53.33583618 19.24003621 53.33583618 19.24003621 50.1875 16.9375 C43.73033116 13.70891558 39.23425625 14.58476788 33.8125 19.25 Z M-34.1875 30.25 C-34.1875 34.87 -34.1875 39.49 -34.1875 44.25 C-33.5275 43.26 -32.8675 42.27 -32.1875 41.25 C-28.70367897 41.89422543 -25.38595461 42.77720812 -22 43.8125 C-16.72910418 45.2513121 -11.63148103 46.20951428 -6.1875 45.25 C-3.55233958 43.45808542 -3.55233958 43.45808542 -2.1875 41.25 C-4.48243913 38.95506087 -5.35851118 38.84893834 -8.4765625 38.3203125 C-9.33636719 38.16433594 -10.19617188 38.00835937 -11.08203125 37.84765625 C-12.87827879 37.53671783 -14.67514446 37.22932582 -16.47265625 36.92578125 C-22.36522831 35.84883272 -26.94486232 34.15995844 -32.1875 31.25 C-32.8475 30.92 -33.5075 30.59 -34.1875 30.25 Z " fill="#FFFFFF" transform="translate(337.1875,37.75)"/>
<path d="M0 0 C0.66 0 1.32 0 2 0 C3.21411133 1.44262695 3.21411133 1.44262695 4.58203125 3.48828125 C5.35208496 4.62789307 5.35208496 4.62789307 6.13769531 5.79052734 C6.96672363 7.03890381 6.96672363 7.03890381 7.8125 8.3125 C8.99071165 10.061315 10.16910214 11.81000952 11.34765625 13.55859375 C11.9523877 14.46077637 12.55711914 15.36295898 13.18017578 16.29248047 C15.47007927 19.69938008 17.78487069 23.08873476 20.10571289 26.47460938 C21.19779789 28.0688751 22.28685492 29.66521943 23.37280273 31.26367188 C25.80936193 34.84453366 28.2681783 38.39429672 30.8515625 41.87109375 C31.28114258 42.45842285 31.71072266 43.04575195 32.15332031 43.65087891 C33.28462607 45.18958134 34.43451252 46.71457576 35.5859375 48.23828125 C37 51 37 51 37.125 53.7265625 C35.41980796 58.68819766 32.55874739 62.74091306 29.625 67.0625 C28.44992882 68.82382393 27.27543148 70.58553086 26.1015625 72.34765625 C25.57900879 73.12117432 25.05645508 73.89469238 24.51806641 74.69165039 C22.94436182 77.08460261 21.47354014 79.54409977 20 82 C25.61 82 31.22 82 37 82 C37.66 80.35 38.32 78.7 39 77 C40.38488275 74.50959421 41.94832926 72.13947379 43.5 69.75 C44.10521484 68.79480469 44.10521484 68.79480469 44.72265625 67.8203125 C47.74946036 63.12526982 47.74946036 63.12526982 50 62 C53.63 69.26 57.26 76.52 61 84 C60.01 84 59.02 84 58 84 C55.9921875 81.41015625 55.9921875 81.41015625 53.875 78.0625 C51.68117914 74.34540606 51.68117914 74.34540606 49 71 C48.43410156 72.07121094 47.86820313 73.14242187 47.28515625 74.24609375 C46.54436633 75.6432798 45.80347571 77.04041247 45.0625 78.4375 C44.68931641 79.14455078 44.31613281 79.85160156 43.93164062 80.58007812 C41.11328125 85.88671875 41.11328125 85.88671875 40 87 C37.67040885 87.07574675 35.33854425 87.08304262 33.0078125 87.0625 C32.30606903 87.05871338 31.60432556 87.05492676 30.88131714 87.05102539 C27.8685608 87.03462602 24.85593801 87.00656953 21.84326172 86.97949219 C19.64811834 86.96141733 17.45299707 86.94931305 15.2578125 86.9375 C13.9392627 86.92589844 12.62071289 86.91429688 11.26220703 86.90234375 C7.989221 86.84375997 7.989221 86.84375997 5 88 C-8.95275239 89.22392565 -19.99776908 88.25223586 -31.30859375 79.5625 C-33 78 -33 78 -36 74 C-36.33 78.29 -36.66 82.58 -37 87 C-43.93 87 -50.86 87 -58 87 C-58.05607422 83.53113281 -58.05607422 83.53113281 -58.11328125 79.9921875 C-58.15956915 77.73818821 -58.21077613 75.48435022 -58.26245117 73.23046875 C-58.29558667 71.67099919 -58.3236537 70.11141298 -58.34643555 68.55175781 C-58.38019281 66.30223148 -58.43251504 64.05376313 -58.48828125 61.8046875 C-58.49467117 61.1138205 -58.5010611 60.42295349 -58.50764465 59.71115112 C-58.64985606 54.96770789 -59.51606244 50.48393756 -63 47 C-69.36724198 46.5030367 -69.36724198 46.5030367 -75 49 C-77.48623924 52.67236609 -77.34567171 56.54711218 -77.4140625 60.828125 C-77.43342865 61.57713074 -77.4527948 62.32613647 -77.4727478 63.09783936 C-77.53235716 65.48177836 -77.57885354 67.86576614 -77.625 70.25 C-77.66319701 71.86981231 -77.70224975 73.48960468 -77.7421875 75.109375 C-77.83964904 79.07281082 -77.91936277 83.03604345 -78 87 C-85.26 87 -92.52 87 -100 87 C-100 67.53 -100 48.06 -100 28 C-93.07 28 -86.14 28 -79 28 C-78.67 29.32 -78.34 30.64 -78 32 C-77.5359375 31.71125 -77.071875 31.4225 -76.59375 31.125 C-68.70557551 26.88657788 -58.9977733 26.41601833 -50.3671875 28.6953125 C-43.58970367 31.76193066 -40.00704055 37.35285774 -37 44 C-36.67128906 43.49210937 -36.34257813 42.98421875 -36.00390625 42.4609375 C-30.93405858 35.12408478 -24.70523678 30.28811481 -16 28 C-5.30486622 26.83922769 4.2970841 27.12076032 13.16796875 33.578125 C18.8869601 38.20332019 22.19409693 42.77638773 24 50 C24 54.62 24 59.24 24 64 C10.47 64.33 -3.06 64.66 -17 65 C-11.36110949 70.66162942 -11.36110949 70.66162942 -4.25 71.3125 C-0.0770778 71.3047147 2.65954017 69.88053865 6.140625 67.6796875 C8 67 8 67 10.03125 67.71875 C12.91487287 69.59539346 15.39605567 71.75113899 18 74 C19.95047663 71.35151017 21.88931951 68.69575668 23.8125 66.02734375 C25.16814593 64.15122661 26.54016224 62.28668092 27.9375 60.44140625 C28.494375 59.67699219 29.05125 58.91257813 29.625 58.125 C30.13289062 57.44695312 30.64078125 56.76890625 31.1640625 56.0703125 C32.22883014 54.0068169 32.22883014 54.0068169 31.47265625 51.76171875 C29.43700739 47.94420218 27.1564354 44.3221772 24.8125 40.6875 C23.73642669 39.00035225 22.6609351 37.31283337 21.5859375 35.625 C21.01069336 34.72394531 20.43544922 33.82289062 19.84277344 32.89453125 C16.51851808 27.67296639 13.22617735 22.43152053 9.9375 17.1875 C8.97324097 15.65838989 8.97324097 15.65838989 7.98950195 14.09838867 C5.09892397 9.48767671 2.28986963 4.94041469 0 0 Z M-17 48 C-17.33 49.32 -17.66 50.64 -18 52 C-10.74 52 -3.48 52 4 52 C2.23753102 47.22193616 2.23753102 47.22193616 -1 44 C-8.14218694 41.61927102 -12.00006941 42.76197748 -17 48 Z " fill="#FEFEFE" transform="translate(108,10)"/>
<path d="M0 0 C4.2501688 -0.05387538 8.49965671 -0.09361561 12.75 -0.125 C13.9565625 -0.14175781 15.163125 -0.15851562 16.40625 -0.17578125 C17.56640625 -0.18222656 18.7265625 -0.18867188 19.921875 -0.1953125 C20.99018555 -0.20578613 22.05849609 -0.21625977 23.15917969 -0.22705078 C25.97979105 -0.00161519 27.60787463 0.54151006 30 2 C29.61779297 2.54301758 29.23558594 3.08603516 28.84179688 3.64550781 C25.76981134 8.01319843 22.70673347 12.38679107 19.65625 16.76953125 C17.53932366 19.81015767 15.40489673 22.83303825 13.21875 25.82421875 C12.4865625 26.85160156 11.754375 27.87898438 11 28.9375 C10.360625 29.81277344 9.72125 30.68804687 9.0625 31.58984375 C7.73578461 33.94663408 7.73578461 33.94663408 8.5546875 36.390625 C10.32576954 39.58814608 12.17490367 42.7219763 14.125 45.8125 C14.49753906 46.40998047 14.87007812 47.00746094 15.25390625 47.62304688 C16.1657048 49.08426251 17.08235976 50.54244585 18 52 C18.15855469 51.40832031 18.31710938 50.81664062 18.48046875 50.20703125 C20.04143989 44.92042734 21.50300131 41.47495353 26 38 C33.25240142 34.30786837 39.91780722 33.84983601 47.875 33.9375 C48.65875 33.94201172 49.4425 33.94652344 50.25 33.95117188 C52.16670014 33.96285907 54.08336048 33.98079092 56 34 C54.12930315 30.44567598 52.87526452 28.31846406 49 27 C43.52251424 26.20720601 38.85947436 27.06098282 33.82421875 29.24609375 C32 30 32 30 28 31 C25.69 26.05 23.38 21.1 21 16 C33.9490854 9.16576048 47.72223963 7.16228352 62 11 C68.45512389 13.72277737 73.11229242 18.22458485 76.25 24.5 C77.93763149 30.12543831 78.13746504 35.62617278 78.09765625 41.4609375 C78.0962413 42.25150543 78.09482635 43.04207336 78.09336853 43.8565979 C78.08780504 46.36277166 78.07525944 48.86885358 78.0625 51.375 C78.05748028 53.08202995 78.0529182 54.78906132 78.04882812 56.49609375 C78.03870171 60.6641257 78.01911945 64.83196096 78 69 C71.4 69 64.8 69 58 69 C57.67 67.68 57.34 66.36 57 65 C55.8553125 65.9590625 55.8553125 65.9590625 54.6875 66.9375 C50.28007317 70.31994384 46.39298547 70.15363287 41.0625 70.125 C40.34642578 70.12886719 39.63035156 70.13273437 38.89257812 70.13671875 C35.35433489 70.13016038 32.45830991 69.86457748 29 69 C32.63 74.94 36.26 80.88 40 87 C39.01 87.495 39.01 87.495 38 88 C36.67935614 86.06982821 35.35871512 84.13965449 34.03808594 82.20947266 C32.87341893 80.50729238 31.70870426 78.80514471 30.54394531 77.10302734 C27.54773301 72.72438035 24.55219243 68.34527812 21.55859375 63.96484375 C20.73258667 62.75731445 20.73258667 62.75731445 19.88989258 61.52539062 C18.80031383 59.93052115 17.71289468 58.33417405 16.62768555 56.73632812 C14.19057116 53.15575127 11.73187069 49.6057692 9.1484375 46.12890625 C8.71885742 45.54157715 8.28927734 44.95424805 7.84667969 44.34912109 C6.71537393 42.81041866 5.56548748 41.28542424 4.4140625 39.76171875 C3 37 3 37 2.875 34.2734375 C4.58019204 29.31180234 7.44125261 25.25908694 10.375 20.9375 C11.55007118 19.17617607 12.72456852 17.41446914 13.8984375 15.65234375 C14.68226807 14.49206665 14.68226807 14.49206665 15.48193359 13.30834961 C17.05857519 10.91093143 18.5398172 8.46975592 20 6 C14.27529544 5.28860647 8.41503238 4.6501718 3 7 C-1.61270736 11.47653887 -4.37084901 17.47321508 -7.03295898 23.25 C-8 25 -8 25 -10 26 C-11.86703248 22.38148572 -13.71640279 18.75423375 -15.5625 15.125 C-16.36204102 13.57619141 -16.36204102 13.57619141 -17.17773438 11.99609375 C-17.67724609 11.00996094 -18.17675781 10.02382813 -18.69140625 9.0078125 C-19.15748291 8.09660645 -19.62355957 7.18540039 -20.10375977 6.24658203 C-20.39951904 5.50520996 -20.69527832 4.76383789 -21 4 C-20.67 3.34 -20.34 2.68 -20 2 C-19.45730469 2.74765625 -18.91460937 3.4953125 -18.35546875 4.265625 C-17.64003906 5.25046875 -16.92460937 6.2353125 -16.1875 7.25 C-15.47980469 8.22453125 -14.77210938 9.1990625 -14.04296875 10.203125 C-12.37893307 12.48123121 -10.69267887 14.74309485 -9 17 C-6.03 11.39 -3.06 5.78 0 0 Z M40 49 C39.25 51.5 39.25 51.5 40 54 C42.75372874 56.42976066 44.32218988 57.01412104 48 56.9375 C51.53690715 55.83221652 53.4870806 54.73464758 56 52 C56.17728851 48.90345648 56.17728851 48.90345648 56 46 C54.08404032 45.91866209 52.16708068 45.86065633 50.25 45.8125 C49.18265625 45.77769531 48.1153125 45.74289063 47.015625 45.70703125 C43.66800824 46.03225309 42.35580463 46.64419537 40 49 Z " fill="#FEFEFE" transform="translate(166,28)"/>
<path d="M0 0 C4.2501688 -0.05387538 8.49965671 -0.09361561 12.75 -0.125 C13.9565625 -0.14175781 15.163125 -0.15851562 16.40625 -0.17578125 C17.56640625 -0.18222656 18.7265625 -0.18867188 19.921875 -0.1953125 C20.99018555 -0.20578613 22.05849609 -0.21625977 23.15917969 -0.22705078 C25.97979105 -0.00161519 27.60787463 0.54151006 30 2 C29.61779297 2.54301758 29.23558594 3.08603516 28.84179688 3.64550781 C25.76981134 8.01319843 22.70673347 12.38679107 19.65625 16.76953125 C17.53932366 19.81015767 15.40489673 22.83303825 13.21875 25.82421875 C12.4865625 26.85160156 11.754375 27.87898438 11 28.9375 C10.360625 29.81277344 9.72125 30.68804687 9.0625 31.58984375 C7.7462442 33.93448955 7.7462442 33.93448955 8.5078125 36.328125 C10.50685192 39.90755684 12.65226653 43.36823516 14.875 46.8125 C17.49746597 50.87848952 20.00808026 54.89994318 22.12109375 59.2578125 C23.54031729 62.17649206 25.06077236 64.58919452 27.1875 67.0625 C32.18718733 73.23602697 36.01861865 80.1476906 40 87 C39.01 87.495 39.01 87.495 38 88 C36.67935614 86.06982821 35.35871512 84.13965449 34.03808594 82.20947266 C32.87341893 80.50729238 31.70870426 78.80514471 30.54394531 77.10302734 C27.54773301 72.72438035 24.55219243 68.34527812 21.55859375 63.96484375 C20.73258667 62.75731445 20.73258667 62.75731445 19.88989258 61.52539062 C18.80031383 59.93052115 17.71289468 58.33417405 16.62768555 56.73632812 C14.19057116 53.15575127 11.73187069 49.6057692 9.1484375 46.12890625 C8.71885742 45.54157715 8.28927734 44.95424805 7.84667969 44.34912109 C6.71537393 42.81041866 5.56548748 41.28542424 4.4140625 39.76171875 C3 37 3 37 2.875 34.2734375 C4.58019204 29.31180234 7.44125261 25.25908694 10.375 20.9375 C11.55007118 19.17617607 12.72456852 17.41446914 13.8984375 15.65234375 C14.68226807 14.49206665 14.68226807 14.49206665 15.48193359 13.30834961 C17.05857519 10.91093143 18.5398172 8.46975592 20 6 C14.27529544 5.28860647 8.41503238 4.6501718 3 7 C-1.61270736 11.47653887 -4.37084901 17.47321508 -7.03295898 23.25 C-8 25 -8 25 -10 26 C-11.86703248 22.38148572 -13.71640279 18.75423375 -15.5625 15.125 C-16.36204102 13.57619141 -16.36204102 13.57619141 -17.17773438 11.99609375 C-17.67724609 11.00996094 -18.17675781 10.02382813 -18.69140625 9.0078125 C-19.15748291 8.09660645 -19.62355957 7.18540039 -20.10375977 6.24658203 C-20.39951904 5.50520996 -20.69527832 4.76383789 -21 4 C-20.67 3.34 -20.34 2.68 -20 2 C-19.45730469 2.74765625 -18.91460937 3.4953125 -18.35546875 4.265625 C-17.64003906 5.25046875 -16.92460937 6.2353125 -16.1875 7.25 C-15.47980469 8.22453125 -14.77210938 9.1990625 -14.04296875 10.203125 C-12.37893307 12.48123121 -10.69267887 14.74309485 -9 17 C-6.03 11.39 -3.06 5.78 0 0 Z " fill="#CD402C" transform="translate(166,28)"/>
<path d="M0 0 C0.66 0 1.32 0 2 0 C3.21411133 1.44262695 3.21411133 1.44262695 4.58203125 3.48828125 C5.09540039 4.24802246 5.60876953 5.00776367 6.13769531 5.79052734 C6.96672363 7.03890381 6.96672363 7.03890381 7.8125 8.3125 C8.99071165 10.061315 10.16910214 11.81000952 11.34765625 13.55859375 C11.9523877 14.46077637 12.55711914 15.36295898 13.18017578 16.29248047 C15.47007927 19.69938008 17.78487069 23.08873476 20.10571289 26.47460938 C21.19779789 28.0688751 22.28685492 29.66521943 23.37280273 31.26367188 C25.80936193 34.84453366 28.2681783 38.39429672 30.8515625 41.87109375 C31.28114258 42.45842285 31.71072266 43.04575195 32.15332031 43.65087891 C33.28462607 45.18958134 34.43451252 46.71457576 35.5859375 48.23828125 C37 51 37 51 37.125 53.7265625 C35.41980796 58.68819766 32.55874739 62.74091306 29.625 67.0625 C28.44992882 68.82382393 27.27543148 70.58553086 26.1015625 72.34765625 C25.57900879 73.12117432 25.05645508 73.89469238 24.51806641 74.69165039 C22.94436182 77.08460261 21.47354014 79.54409977 20 82 C25.61 82 31.22 82 37 82 C37.66 80.35 38.32 78.7 39 77 C40.38488275 74.50959421 41.94832926 72.13947379 43.5 69.75 C43.90347656 69.11320312 44.30695313 68.47640625 44.72265625 67.8203125 C47.74946036 63.12526982 47.74946036 63.12526982 50 62 C53.63 69.26 57.26 76.52 61 84 C60.01 84 59.02 84 58 84 C55.9921875 81.41015625 55.9921875 81.41015625 53.875 78.0625 C51.68117914 74.34540606 51.68117914 74.34540606 49 71 C48.43410156 72.07121094 47.86820313 73.14242187 47.28515625 74.24609375 C46.54436633 75.6432798 45.80347571 77.04041247 45.0625 78.4375 C44.68931641 79.14455078 44.31613281 79.85160156 43.93164062 80.58007812 C41.11328125 85.88671875 41.11328125 85.88671875 40 87 C37.78144736 87.08783542 35.56011504 87.10694609 33.33984375 87.09765625 C32.34314415 87.09553383 32.34314415 87.09553383 31.3263092 87.09336853 C29.19666101 87.08775518 27.06711661 87.07520054 24.9375 87.0625 C23.49674631 87.05748671 22.05599097 87.05292351 20.61523438 87.04882812 C17.07678898 87.03778145 13.53840461 87.02050792 10 87 C12.40801198 84.57198792 14.79235177 82.18032609 17.375 79.9375 C17.91125 79.298125 18.4475 78.65875 19 78 C18.79503906 77.40703125 18.59007813 76.8140625 18.37890625 76.203125 C18 74 18 74 19.44140625 71.51953125 C20.14136719 70.62621094 20.84132812 69.73289062 21.5625 68.8125 C22.29339844 67.84699219 23.02429688 66.88148437 23.77734375 65.88671875 C24.51082031 64.93410156 25.24429688 63.98148438 26 63 C27.22881168 61.39042978 28.43967285 59.76685687 29.625 58.125 C30.13289063 57.44695312 30.64078125 56.76890625 31.1640625 56.0703125 C32.22883014 54.0068169 32.22883014 54.0068169 31.47265625 51.76171875 C29.43700739 47.94420218 27.1564354 44.3221772 24.8125 40.6875 C23.73642669 39.00035225 22.6609351 37.31283337 21.5859375 35.625 C20.72307129 34.27341797 20.72307129 34.27341797 19.84277344 32.89453125 C16.51851808 27.67296639 13.22617735 22.43152053 9.9375 17.1875 C8.97324097 15.65838989 8.97324097 15.65838989 7.98950195 14.09838867 C5.09892397 9.48767671 2.28986963 4.94041469 0 0 Z " fill="#D03F2C" transform="translate(108,10)"/>
<path d="M0 0 C2.44536753 1.81138336 3.4502647 3.46622057 4.6875 6.25 C5.09109922 10.01692609 4.99908806 12.48834029 3.5625 16 C0.81108727 19.30169527 -1.97600029 20.90955194 -6.26953125 21.53515625 C-10.97338631 21.74201794 -14.3321792 20.9344024 -18.3125 18.25 C-20.70648482 15.37721821 -21.27274433 13.52332022 -21.8125 9.8125 C-21.165 5.19906249 -19.69172958 3.40884505 -16.3125 0.25 C-10.81524773 -2.55970671 -5.76622272 -1.87012629 0 0 Z " fill="#FEFEFE" transform="translate(300.3125,11.75)"/>
<path d="M0 0 C0.99 0 1.98 0 3 0 C3 1.65 3 3.3 3 5 C4.65 5 6.3 5 8 5 C8 3.35 8 1.7 8 0 C8.99 0 9.98 0 11 0 C11 4.29 11 8.58 11 13 C10.01 13 9.02 13 8 13 C8 11.02 8 9.04 8 7 C6.35 7 4.7 7 3 7 C3 8.98 3 10.96 3 13 C2.01 13 1.02 13 0 13 C0 8.71 0 4.42 0 0 Z " fill="#FFFFFF" transform="translate(256,117)"/>
<path d="M0 0 C7.21153846 -0.48076923 7.21153846 -0.48076923 10.5625 1.5625 C12 4 12 4 11.875 7.625 C11 11 11 11 9 13 C5.98173347 13.27240673 3.03629378 13.08675125 0 13 C0 8.71 0 4.42 0 0 Z M2 2 C2 4.97 2 7.94 2 11 C4.41645782 11.16687448 4.41645782 11.16687448 7 11 C9.2491908 9.17296773 9.2491908 9.17296773 9.25 6.5 C9.2491908 3.82703227 9.2491908 3.82703227 7 2 C4.41645782 1.83312552 4.41645782 1.83312552 2 2 Z " fill="#FFFFFF" transform="translate(80,117)"/>
<path d="M0 0 C0 1.32 0 2.64 0 4 C-0.66 3.67 -1.32 3.34 -2 3 C-5.04173894 2.83329727 -5.04173894 2.83329727 -8 3 C-9.29633621 4.06645115 -9.29633621 4.06645115 -9.0625 6.5625 C-9.041875 7.366875 -9.02125 8.17125 -9 9 C-5.21812119 10.83691257 -3.05431692 11.15837626 1 10 C0.67 10.99 0.34 11.98 0 13 C-7.125 14.30625 -7.125 14.30625 -10.5 13.125 C-12.60421686 10.14402611 -12.62081168 7.69344576 -12.4453125 4.1015625 C-12 2 -12 2 -9.9375 -0.125 C-6.28859887 -1.21190672 -3.68948229 -0.79577069 0 0 Z " fill="#FFFFFF" transform="translate(239,117)"/>
<path d="M0 0 C1.23397852 1.85096778 2.46399845 3.70459024 3.6875 5.5625 C5.48612703 8.27039605 7.36342063 10.91527245 9.25 13.5625 C13.45420174 19.53593197 17.22732568 25.74813969 21 32 C20.01 32.495 20.01 32.495 19 33 C14.64369083 26.6822216 10.31243117 20.34780463 6 14 C5.34717041 13.04407959 5.34717041 13.04407959 4.68115234 12.06884766 C3.65107439 10.55355924 2.63706735 9.02737659 1.625 7.5 C0.80902344 6.27796875 0.80902344 6.27796875 -0.0234375 5.03125 C-1 3 -1 3 0 0 Z " fill="#C94235" transform="translate(185,83)"/>
<path d="M0 0 C2.64 0 5.28 0 8 0 C8 0.66 8 1.32 8 2 C6.02 2 4.04 2 2 2 C2 2.99 2 3.98 2 5 C3.98 5 5.96 5 8 5 C8 5.66 8 6.32 8 7 C6.02 7 4.04 7 2 7 C2 8.32 2 9.64 2 11 C3.98 11 5.96 11 8 11 C8 11.66 8 12.32 8 13 C5.36 13 2.72 13 0 13 C0 8.71 0 4.42 0 0 Z " fill="#FEFEFD" transform="translate(203,117)"/>
<path d="M0 0 C2.64 0 5.28 0 8 0 C8 0.66 8 1.32 8 2 C6.02 2 4.04 2 2 2 C2 2.99 2 3.98 2 5 C3.98 5 5.96 5 8 5 C8 5.66 8 6.32 8 7 C6.02 7 4.04 7 2 7 C2 8.32 2 9.64 2 11 C3.98 11 5.96 11 8 11 C8 11.66 8 12.32 8 13 C5.36 13 2.72 13 0 13 C0 8.71 0 4.42 0 0 Z " fill="#FFFFFF" transform="translate(132,117)"/>
<path d="M0 0 C2.64 0 5.28 0 8 0 C8 0.66 8 1.32 8 2 C6.02 2 4.04 2 2 2 C2 2.99 2 3.98 2 5 C3.98 5 5.96 5 8 5 C8 5.66 8 6.32 8 7 C6.02 7 4.04 7 2 7 C2 8.32 2 9.64 2 11 C3.98 11 5.96 11 8 11 C8 11.66 8 12.32 8 13 C5.36 13 2.72 13 0 13 C0 8.71 0 4.42 0 0 Z " fill="#FFFFFF" transform="translate(108,117)"/>
<path d="M0 0 C6.15234375 -0.09765625 6.15234375 -0.09765625 8 0 C9 1 9 1 9.125 3.5 C9 6 9 6 8 7 C6.00041636 7.04080783 3.99954746 7.04254356 2 7 C2 8.98 2 10.96 2 13 C1.34 13 0.68 13 0 13 C0 8.71 0 4.42 0 0 Z M2 2 C2 2.99 2 3.98 2 5 C3.65 4.67 5.3 4.34 7 4 C6.67 3.34 6.34 2.68 6 2 C4.68 2 3.36 2 2 2 Z " fill="#FFFFFF" transform="translate(348,117)"/>
<path d="M0 0 C6.15234375 -0.09765625 6.15234375 -0.09765625 8 0 C9 1 9 1 9.125 3.5 C9 6 9 6 8 7 C6.00041636 7.04080783 3.99954746 7.04254356 2 7 C2 8.98 2 10.96 2 13 C1.34 13 0.68 13 0 13 C0 8.71 0 4.42 0 0 Z M2 2 C2 2.99 2 3.98 2 5 C3.65 4.67 5.3 4.34 7 4 C6.67 3.34 6.34 2.68 6 2 C4.68 2 3.36 2 2 2 Z " fill="#FFFFFF" transform="translate(156,117)"/>
<path d="M0 0 C0.99 0 1.98 0 3 0 C3 3.63 3 7.26 3 11 C4.65 11 6.3 11 8 11 C8 11.66 8 12.32 8 13 C5.36 13 2.72 13 0 13 C0 8.71 0 4.42 0 0 Z " fill="#FFFFFF" transform="translate(325,117)"/>
<path d="M0 0 C2.64 0 5.28 0 8 0 C8 0.66 8 1.32 8 2 C7.01 2 6.02 2 5 2 C5 5.63 5 9.26 5 13 C4.01 13 3.02 13 2 13 C2 9.37 2 5.74 2 2 C1.34 2 0.68 2 0 2 C0 1.34 0 0.68 0 0 Z " fill="#FFFFFF" transform="translate(180,117)"/>
<path d="M0 0 C0.33 0.66 0.66 1.32 1 2 C1.99 2.33 2.98 2.66 4 3 C3.34 4.65 2.68 6.3 2 8 C7.28 8 12.56 8 18 8 C18 8.33 18 8.66 18 9 C7.11 9.495 7.11 9.495 -4 10 C-2.35 8.02 -0.7 6.04 1 4 C0.96624167 1.67828408 0.96624167 1.67828408 0 0 Z " fill="#C04938" transform="translate(126,84)"/>
<path d="M0 0 C0.66 0 1.32 0 2 0 C2 3.63 2 7.26 2 11 C3.65 11 5.3 11 7 11 C7 11.66 7 12.32 7 13 C4.69 13 2.38 13 0 13 C0 8.71 0 4.42 0 0 Z " fill="#FFFFFF" transform="translate(303,117)"/>
<path d="M0 0 C2.48627517 3.0622744 4.09989404 6.1457054 5.6875 9.75 C6.12449219 10.73484375 6.56148437 11.7196875 7.01171875 12.734375 C7.33785156 13.48203125 7.66398438 14.2296875 8 15 C4.44106101 13.813687 3.82332335 12.78953229 1.75 9.75 C1.20859375 8.98171875 0.6671875 8.2134375 0.109375 7.421875 C-1.23769404 4.48109049 -0.92740578 3.04102826 0 0 Z " fill="#C64430" transform="translate(161,80)"/>
<path d="M0 0 C0.66 0.99 1.32 1.98 2 3 C2.66 3.969375 3.32 4.93875 4 5.9375 C5.52126809 8.26694176 6.83844133 10.48328954 8 13 C7.01 13 6.02 13 5 13 C3.359375 10.91796875 3.359375 10.91796875 1.75 8.1875 C1.20859375 7.29417969 0.6671875 6.40085937 0.109375 5.48046875 C-1 3 -1 3 0 0 Z " fill="#C55D50" transform="translate(185,83)"/>
</svg>
